<?xml version="1.0" encoding="UTF-8"?>
<svg xmlns="http://www.w3.org/2000/svg" xmlns:xlink="http://www.w3.org/1999/xlink" width="5250" height="1875" viewBox="0 0 5250 1875">
<rect x="-525" y="-187.5" width="6300" height="2250" fill="rgb(100%, 100%, 100%)" fill-opacity="1"/>
<path fill-rule="nonzero" fill="rgb(92.576599%, 93.359375%, 95.701599%)" fill-opacity="1" d="M 954.140625 308.410156 C 962.03125 312.769531 969.933594 317.558594 977.828125 322.800781 C 1062.03125 378.691406 1095.378906 500.921875 1158.671875 586.339844 C 1222.921875 673.089844 1289.5 679.21875 1360.339844 717.96875 C 1505.539062 797.390625 1525.171875 1030.527344 1531.449219 1058.175781 C 1570.171875 1228.636719 1523.21875 1377.949219 1446.011719 1467.960938 C 1368.800781 1557.972656 1261.328125 1588.683594 1149.949219 1588.253906 C 1038.578125 1587.828125 933.546875 1563.855469 884.882812 1504.09375 C 836.214844 1444.328125 843.914062 1348.777344 796.921875 1313.324219 C 749.929688 1277.867188 544.503906 1246.773438 534.539062 1239.078125 C 496.078125 1233.96875 458.925781 1226.546875 426.714844 1214.214844 C 330.265625 1177.292969 278.121094 1096.398438 247.167969 1026.582031 C 95.539062 679.03125 383.132812 292.429688 749.664062 272.539062 C 802.910156 263.640625 877.882812 266.238281 954.140625 308.410156 "/>
<path fill-rule="nonzero" fill="rgb(92.576599%, 93.359375%, 95.701599%)" fill-opacity="1" d="M 4403.738281 1528.09375 C 4478.070312 1499.546875 4564.769531 1449.753906 4606.941406 1352.460938 C 4649.101562 1255.164062 4646.730469 1110.367188 4669.171875 1021.398438 C 4691.601562 932.429688 4738.839844 899.285156 4792.558594 871.570312 C 4846.28125 843.851562 4906.46875 821.558594 4948.109375 785.210938 C 4989.75 748.871094 5012.839844 698.46875 4993.28125 627.910156 C 4973.730469 557.359375 4911.53125 466.628906 4828.890625 428.320312 C 4746.238281 390 4666.308594 233.058594 4535.710938 239.308594 C 4344.960938 248.441406 4342.949219 386.199219 4238.238281 438.808594 C 4133.53125 513.21875 4022.101562 500.800781 3945.621094 541.070312 C 3869.140625 581.328125 3753.328125 661.75 3691.699219 745.601562 C 3630.078125 829.449219 3622.640625 916.71875 3630.851562 977.480469 C 3638.628906 1354.636719 4033.828125 1667.6875 4403.738281 1528.09375 "/>
<path fill-rule="nonzero" fill="rgb(17.259216%, 35.301208%, 62.693787%)" fill-opacity="1" d="M 4294.21875 1573.890625 C 4513.519531 1573.890625 4732.488281 1576.589844 4926.210938 1576.589844 C 4959.871094 1576.589844 4952.691406 1541.058594 4952.691406 1541.058594 L 4879.410156 1027.613281 C 4870.710938 966.703125 4852.050781 935.988281 4820.269531 936.34375 C 4736.03125 937.292969 4492.980469 933.363281 4408.808594 933.363281 C 4378.839844 933.363281 4344.148438 967.625 4344.148438 1009.183594 L 4268.039062 1533.226562 C 4268.039062 1533.226562 4259.988281 1573.890625 4294.21875 1573.890625 "/>
<path fill-rule="nonzero" fill="rgb(100%, 100%, 100%)" fill-opacity="1" d="M 4432.839844 1001.042969 C 4432.839844 1014.601562 4438.390625 1027.605469 4448.28125 1037.195312 C 4458.160156 1046.78125 4471.558594 1052.171875 4485.539062 1052.171875 C 4514.640625 1052.171875 4538.238281 1029.277344 4538.238281 1001.042969 C 4538.238281 972.804688 4514.640625 949.914062 4485.539062 949.914062 C 4471.558594 949.914062 4458.160156 955.300781 4448.28125 964.890625 C 4438.390625 974.476562 4432.839844 987.480469 4432.839844 1001.042969 "/>
<path fill-rule="nonzero" fill="rgb(100%, 100%, 100%)" fill-opacity="1" d="M 4672.890625 1001.042969 C 4672.890625 1014.601562 4678.449219 1027.605469 4688.328125 1037.195312 C 4698.210938 1046.78125 4711.621094 1052.171875 4725.589844 1052.171875 C 4754.699219 1052.171875 4778.289062 1029.277344 4778.289062 1001.042969 C 4778.289062 972.804688 4754.699219 949.914062 4725.589844 949.914062 C 4711.621094 949.914062 4698.210938 955.300781 4688.328125 964.890625 C 4678.449219 974.476562 4672.890625 987.480469 4672.890625 1001.042969 "/>
<path fill-rule="nonzero" fill="rgb(21.556091%, 44.309998%, 78.514099%)" fill-opacity="1" d="M 4602.28125 714.011719 C 4566.910156 713.921875 4524.710938 724.449219 4497.359375 746.820312 C 4470.011719 769.191406 4451.761719 803.898438 4452.011719 847.578125 L 4452.878906 1000.25 C 4453.101562 1039.101562 4518.320312 1039.253906 4518.078125 1000.324219 L 4517.21875 858.820312 C 4517.019531 823.589844 4530.421875 807.140625 4550.808594 790.460938 C 4571.199219 773.789062 4637.28125 774.101562 4657.980469 790.738281 C 4678.679688 807.378906 4692.429688 823.488281 4692.480469 857.46875 L 4693.359375 1000.839844 C 4693.558594 1034.015625 4758.761719 1035.601562 4758.570312 1000.910156 L 4757.691406 845.78125 C 4757.441406 803.101562 4738.75 769 4711.261719 746.898438 C 4683.769531 724.800781 4637.648438 714.101562 4602.28125 714.011719 "/>
<path fill-rule="nonzero" fill="rgb(92.576599%, 93.359375%, 95.701599%)" fill-opacity="1" d="M 3218.449219 999.691406 C 3208.339844 922.328125 3179.921875 827.640625 3092.449219 761.851562 C 3004.980469 696.058594 2858.449219 659.179688 2774.410156 614.128906 C 2690.371094 569.078125 2419.359375 175.289062 2223.179688 267.96875 C 1951.390625 396.371094 2001.761719 913.203125 2108.621094 1162.433594 C 2142.21875 1240.796875 2181.980469 1375.21875 2251.011719 1455.609375 C 2320.050781 1536 2406.140625 1566.535156 2469.441406 1575.253906 C 2851.511719 1669.820312 3266.261719 1384.03125 3218.449219 999.691406 "/>
<path fill-rule="nonzero" fill="rgb(12.939453%, 26.660156%, 47.068787%)" fill-opacity="1" d="M 548.933594 719 L 548.933594 797.808594 C 548.835938 805.878906 555.351562 812.46875 563.417969 812.46875 C 571.488281 812.46875 578 805.878906 577.902344 797.808594 L 577.902344 690.03125 L 577.902344 716.519531 C 578.089844 703.308594 561.9375 696.761719 552.875 706.378906 C 550.292969 709.121094 548.878906 712.75 548.933594 716.519531 L 548.933594 690.03125 L 548.933594 719 "/>
<path fill-rule="nonzero" fill="rgb(12.939453%, 26.660156%, 47.068787%)" fill-opacity="1" d="M 548.933594 600.339844 L 548.933594 679.148438 C 548.835938 687.210938 555.351562 693.808594 563.417969 693.808594 C 571.488281 693.808594 578 687.210938 577.902344 679.148438 L 577.902344 571.371094 L 577.902344 597.859375 C 578.089844 584.640625 561.9375 578.101562 552.875 587.71875 C 550.292969 590.460938 548.878906 594.089844 548.933594 597.851562 L 548.933594 571.371094 L 548.933594 600.339844 "/>
<path fill-rule="nonzero" fill="rgb(12.939453%, 26.660156%, 47.068787%)" fill-opacity="1" d="M 1139.410156 705.921875 L 1139.410156 795.929688 C 1139.308594 804 1145.828125 810.589844 1153.890625 810.589844 C 1161.960938 810.589844 1168.480469 804 1168.378906 795.929688 L 1168.378906 598.140625 C 1168.570312 584.929688 1152.410156 578.378906 1143.351562 588 C 1140.769531 590.738281 1139.359375 594.371094 1139.410156 598.140625 L 1139.410156 705.921875 "/>
<path fill-rule="nonzero" fill="rgb(12.939453%, 26.660156%, 47.068787%)" fill-opacity="1" d="M 619.527344 421.089844 L 1099.28125 421.089844 C 1131.648438 421.089844 1157.710938 451.949219 1157.710938 490.269531 L 1157.710938 1517.902344 C 1157.710938 1556.226562 1131.648438 1587.082031 1099.28125 1587.082031 L 619.527344 1587.082031 C 587.152344 1587.082031 561.09375 1556.226562 561.09375 1517.902344 L 561.09375 490.269531 C 561.09375 451.949219 587.152344 421.089844 619.527344 421.089844 "/>
<path fill-rule="nonzero" fill="rgb(97.264099%, 97.264099%, 100%)" fill-opacity="1" d="M 636.8125 442.558594 L 1081.988281 442.558594 C 1112.03125 442.558594 1136.21875 472.28125 1136.21875 509.191406 L 1136.21875 1498.984375 C 1136.21875 1535.898438 1112.03125 1565.617188 1081.988281 1565.617188 L 636.8125 1565.617188 C 606.773438 1565.617188 582.589844 1535.898438 582.589844 1498.984375 L 582.589844 509.191406 C 582.589844 472.28125 606.773438 442.558594 636.8125 442.558594 "/>
<path fill="none" stroke-width="113.661" stroke-linecap="round" stroke-linejoin="round" stroke="rgb(100%, 44.309998%, 50.193787%)" stroke-opacity="1" stroke-miterlimit="4" d="M 7400.117188 5087.1875 L 8041.328125 5097.578125 L 8196.328125 4864.492188 L 8294.21875 5258.789062 L 8356.601562 5047.8125 L 8431.679688 5108.59375 L 8659.179688 5098.085938 L 8810.585938 5684.257812 L 8932.96875 4704.765625 L 9156.835938 5125.507812 L 10006.289062 5129.492188 " transform="matrix(0.1, 0, 0, -0.1, 0, 1875)"/>
<path fill-rule="nonzero" fill="rgb(12.939453%, 26.660156%, 47.068787%)" fill-opacity="1" d="M 878.988281 484.671875 C 878.988281 495.488281 870.21875 504.25 859.402344 504.25 C 854.210938 504.25 849.226562 502.191406 845.554688 498.519531 C 841.882812 494.839844 839.816406 489.859375 839.816406 484.671875 C 839.816406 479.46875 841.882812 474.488281 845.554688 470.820312 C 849.226562 467.148438 854.210938 465.078125 859.402344 465.078125 C 870.21875 465.078125 878.988281 473.851562 878.988281 484.671875 "/>
<path fill-rule="nonzero" fill="rgb(12.939453%, 26.660156%, 47.068787%)" fill-opacity="1" d="M 876.628906 716.738281 C 868.21875 716.621094 861.367188 723.101562 861.484375 731.058594 L 861.484375 737.238281 C 850.085938 737.570312 838.617188 737.878906 826.863281 738.449219 C 821.472656 738.660156 817.574219 743.410156 818.691406 748.410156 C 818.691406 749.710938 818.683594 751.019531 818.683594 752.320312 C 818.683594 844.128906 876.640625 919.621094 950.757812 929.824219 C 950.464844 930.878906 950.390625 931.972656 950.539062 933.050781 C 952.722656 950.472656 954.820312 978.457031 953.15625 1005.617188 C 952.9375 1082.902344 868.644531 1130.480469 808.203125 1119.808594 C 798.449219 1117.785156 788.75 1114.09375 779.398438 1109.304688 C 792.859375 1101.242188 804.941406 1093.101562 813.496094 1085.46875 C 842.851562 1059.273438 859.125 1028 854.972656 1003.027344 L 854.972656 1003.019531 C 850.847656 977.972656 823.890625 964.234375 801.671875 973.078125 L 801.664062 973.078125 C 790.546875 977.515625 782.277344 986.394531 775.921875 995.835938 C 774.511719 997.925781 773.242188 1000.050781 772.035156 1002.183594 C 771.046875 1000.058594 770.074219 997.933594 768.929688 995.820312 C 762.355469 983.671875 753.480469 971.472656 739.15625 967.429688 C 739.148438 967.429688 739.144531 967.425781 739.136719 967.425781 C 710.421875 959.386719 678.746094 990.648438 689.394531 1031.957031 C 694.71875 1052.617188 709.617188 1075.207031 729.949219 1094.636719 C 734.929688 1099.398438 740.257812 1103.953125 745.855469 1108.222656 C 717.535156 1123.265625 686.941406 1137.378906 670.140625 1144.078125 C 669.46875 1144.335938 668.828125 1144.675781 668.242188 1145.078125 C 661.117188 1138.171875 651.476562 1133.933594 640.941406 1133.933594 C 619.28125 1133.933594 601.386719 1151.816406 601.386719 1174.035156 C 601.386719 1196.210938 619.28125 1214.085938 640.941406 1214.085938 C 662.597656 1214.085938 680.488281 1196.210938 680.488281 1174.035156 C 680.488281 1168.789062 679.484375 1163.789062 677.671875 1159.203125 C 697.152344 1151.398438 731.347656 1136.066406 762.160156 1119.195312 C 775.289062 1127.007812 789.511719 1133.035156 804.421875 1136.128906 L 804.429688 1136.128906 C 897.160156 1143.941406 965.257812 1090.070312 970.773438 1006.578125 C 972.527344 977.960938 970.347656 949.3125 968.066406 931.078125 C 968.0625 931.054688 968.0625 931.03125 968.058594 931.007812 C 1050.121094 930.910156 1117.078125 851.039062 1117.078125 752.320312 C 1117.078125 750.441406 1117.078125 748.570312 1117.039062 746.691406 L 1116.480469 746.691406 C 1116.480469 742.261719 1112.789062 738.628906 1108.121094 738.449219 C 1096.359375 737.878906 1084.898438 737.570312 1073.5 737.230469 L 1073.5 731.058594 C 1073.621094 723.261719 1067.039062 716.851562 1058.808594 716.730469 C 1050.398438 716.609375 1043.539062 723.101562 1043.660156 731.058594 L 1043.660156 756.351562 C 1043.53125 764.238281 1050.25 770.699219 1058.578125 770.699219 C 1066.921875 770.699219 1073.628906 764.238281 1073.5 756.351562 L 1073.5 753.738281 C 1082.710938 754.011719 1091.871094 754.261719 1101.089844 754.648438 C 1100.050781 841.160156 1041.078125 911.125 967.90625 911.125 C 894.726562 911.125 835.746094 841.140625 834.71875 754.609375 C 843.660156 754.25 852.554688 754 861.488281 753.738281 L 861.488281 756.351562 C 861.355469 764.238281 868.074219 770.699219 876.40625 770.699219 C 884.738281 770.699219 891.457031 764.238281 891.328125 756.351562 L 891.328125 731.058594 C 891.445312 723.261719 884.867188 716.851562 876.632812 716.730469 Z M 730.582031 983.007812 C 730.984375 983.007812 731.382812 983.015625 731.769531 983.046875 L 731.769531 983.039062 C 732.59375 983.097656 733.382812 983.214844 734.121094 983.449219 C 740.050781 985.132812 747.644531 993.132812 753.222656 1003.441406 C 757.699219 1011.714844 760.960938 1020.9375 762.777344 1027.636719 C 762.417969 1030.378906 762.242188 1032.9375 762.382812 1035.101562 C 762.585938 1038.199219 762.285156 1040.023438 764.929688 1043.738281 C 765.589844 1044.664062 766.5 1046.027344 769.210938 1047.089844 C 771.921875 1048.148438 776.6875 1047.277344 778.71875 1045.585938 C 782.78125 1042.203125 781.910156 1040.464844 782.085938 1038.976562 C 782.429688 1036.003906 782.085938 1033.1875 781.246094 1029.035156 L 781.246094 1029.027344 C 781.117188 1028.398438 780.882812 1027.589844 780.726562 1026.914062 C 782.089844 1021.03125 785.734375 1012.34375 790.800781 1004.824219 C 795.980469 997.132812 802.695312 990.804688 808.507812 988.484375 C 820.15625 983.847656 835.003906 990.246094 837.527344 1005.601562 C 837.527344 1005.605469 837.527344 1005.613281 837.527344 1005.617188 C 840.0625 1020.824219 827.761719 1049.769531 801.382812 1073.308594 C 792.953125 1080.832031 778.636719 1089.921875 762.453125 1099.113281 C 755.371094 1094.199219 748.632812 1088.75 742.488281 1082.875 C 724.011719 1065.222656 710.714844 1044.210938 706.535156 1027.996094 C 698.949219 998.554688 718.09375 983.101562 730.578125 983.007812 Z M 764.464844 1036.128906 C 764.507812 1036.816406 764.523438 1037.285156 764.53125 1037.167969 C 764.546875 1037.097656 764.261719 1036.804688 764.464844 1036.128906 Z M 640.941406 1146.136719 C 656.507812 1146.136719 668.808594 1158.636719 668.808594 1174.039062 C 668.808594 1189.378906 656.507812 1201.886719 640.941406 1201.886719 C 625.371094 1201.886719 613.070312 1189.378906 613.070312 1174.039062 C 613.070312 1158.636719 625.371094 1146.136719 640.941406 1146.136719 "/>
<path fill-rule="nonzero" fill="rgb(12.939453%, 26.660156%, 47.068787%)" fill-opacity="1" d="M 623.792969 1174.558594 C 623.792969 1184.410156 631.460938 1192.425781 640.941406 1192.425781 C 650.414062 1192.425781 658.089844 1184.410156 658.089844 1174.558594 C 658.089844 1164.710938 650.414062 1156.691406 640.941406 1156.691406 C 631.460938 1156.691406 623.792969 1164.710938 623.792969 1174.558594 "/>
<path fill-rule="nonzero" fill="rgb(50.193787%, 70.117188%, 100%)" fill-opacity="1" d="M 1035.53125 419.628906 L 1305.539062 418.71875 C 1329.359375 418.640625 1348.589844 438.839844 1348.648438 463.941406 L 1348.988281 593.601562 C 1349.050781 618.691406 1329.929688 638.898438 1306.109375 638.980469 L 1066.640625 639.828125 L 1039.921875 669.449219 C 1039.921875 669.449219 1041.300781 639.878906 1036.109375 639.890625 C 1012.289062 639.941406 993.058594 619.769531 992.992188 594.671875 L 992.65625 465.019531 C 992.589844 439.921875 1011.71875 419.710938 1035.53125 419.628906 "/>
<path fill-rule="nonzero" fill="rgb(100%, 100%, 100%)" fill-opacity="1" d="M 1058.078125 478.691406 L 1280.261719 479.269531 C 1284.460938 479.28125 1288.070312 484.121094 1288.359375 490.128906 C 1288.640625 496.140625 1285.488281 500.980469 1281.289062 500.96875 L 1059.109375 500.378906 C 1054.898438 500.371094 1051.289062 495.53125 1051.011719 489.519531 C 1050.71875 483.511719 1053.878906 478.679688 1058.078125 478.691406 "/>
<path fill-rule="nonzero" fill="rgb(100%, 100%, 100%)" fill-opacity="1" d="M 1057.558594 551.730469 L 1196.699219 551.96875 C 1200.898438 551.96875 1204.511719 556.820312 1204.800781 562.828125 C 1205.078125 568.839844 1201.929688 573.671875 1197.730469 573.660156 L 1058.589844 573.429688 C 1054.390625 573.421875 1050.769531 568.578125 1050.488281 562.570312 C 1050.210938 556.558594 1053.359375 551.71875 1057.558594 551.730469 "/>
<path fill-rule="nonzero" fill="rgb(21.556091%, 44.309998%, 78.514099%)" fill-opacity="1" d="M 703.480469 714.871094 L 326.886719 714.078125 C 309.546875 714.050781 295.546875 731.480469 295.5 753.179688 L 295.253906 865.289062 C 295.203125 886.992188 309.128906 904.464844 326.472656 904.535156 L 680.832031 905.273438 L 700.285156 930.882812 C 700.285156 930.882812 699.28125 905.316406 703.0625 905.324219 C 720.40625 905.363281 734.40625 887.925781 734.453125 866.21875 L 734.699219 754.109375 C 734.746094 732.410156 720.820312 714.910156 703.480469 714.871094 "/>
<path fill-rule="nonzero" fill="rgb(100%, 100%, 100%)" fill-opacity="1" d="M 456.441406 752.160156 L 642.785156 752.648438 C 646.3125 752.660156 649.339844 756.71875 649.578125 761.761719 C 649.820312 766.800781 647.171875 770.851562 643.648438 770.839844 L 457.304688 770.359375 C 453.777344 770.351562 450.75 766.289062 450.511719 761.25 C 450.269531 756.210938 452.917969 752.148438 456.441406 752.160156 "/>
<path fill-rule="nonzero" fill="rgb(100%, 100%, 100%)" fill-opacity="1" d="M 384.519531 802.75 L 501.210938 802.949219 C 504.738281 802.949219 507.765625 807.019531 508.007812 812.058594 C 508.246094 817.101562 505.597656 821.148438 502.074219 821.140625 L 385.378906 820.949219 C 381.855469 820.941406 378.824219 816.878906 378.585938 811.839844 C 378.347656 806.800781 380.992188 802.738281 384.519531 802.75 "/>
<path fill-rule="nonzero" fill="rgb(100%, 100%, 100%)" fill-opacity="1" d="M 442.695312 850.441406 L 629.039062 850.929688 C 632.5625 850.941406 635.59375 855 635.832031 860.039062 C 636.070312 865.078125 633.425781 869.140625 629.898438 869.128906 L 443.554688 868.640625 C 440.03125 868.628906 437 864.570312 436.761719 859.53125 C 436.523438 854.488281 439.167969 850.429688 442.695312 850.441406 "/>
<path fill-rule="nonzero" fill="rgb(100%, 100%, 100%)" fill-opacity="1" d="M 1494.039062 982.058594 C 1478.078125 1013.15625 1450.320312 1036.964844 1416.878906 1048.25 C 1383.441406 1059.535156 1347.058594 1057.367188 1315.730469 1042.230469 C 1284.410156 1027.09375 1260.71875 1000.222656 1249.859375 967.53125 C 1239 934.839844 1241.871094 899.003906 1257.839844 867.910156 C 1291.089844 803.148438 1370.929688 776.210938 1436.148438 807.730469 C 1467.46875 822.871094 1491.171875 849.738281 1502.03125 882.433594 C 1512.878906 915.125 1510.011719 950.960938 1494.039062 982.058594 "/>
<path fill-rule="nonzero" fill="rgb(21.556091%, 44.309998%, 78.514099%)" fill-opacity="1" d="M 1368.019531 781.589844 C 1316.980469 783.859375 1268.21875 812.78125 1243.480469 860.960938 C 1207.488281 931.054688 1235.628906 1015.933594 1306.359375 1050.113281 C 1377.078125 1084.292969 1463.878906 1054.964844 1499.871094 984.875 C 1535.859375 914.785156 1507.71875 829.898438 1436.988281 795.71875 C 1414.890625 785.039062 1391.21875 780.558594 1368.019531 781.589844 Z M 1368.628906 803.640625 C 1388.160156 802.789062 1408.109375 806.589844 1426.78125 815.621094 C 1486.5 844.480469 1510.191406 915.695312 1479.679688 975.117188 C 1449.171875 1034.539062 1376.300781 1059.085938 1316.570312 1030.222656 C 1256.851562 1001.359375 1233.160156 930.144531 1263.671875 870.71875 C 1284.648438 829.871094 1325.640625 805.5 1368.628906 803.640625 "/>
<path fill-rule="nonzero" fill="rgb(21.556091%, 44.309998%, 78.514099%)" fill-opacity="1" d="M 1372.230469 814.941406 C 1370.679688 814.089844 1368.769531 815.210938 1368.761719 816.988281 C 1368.570312 828.160156 1368.828125 817.558594 1368.640625 828.691406 C 1368.601562 830 1369.640625 831.078125 1370.941406 831.101562 C 1372.238281 831.121094 1373.320312 830.078125 1373.328125 828.769531 C 1373.519531 817.609375 1373.25 828.210938 1373.449219 817.070312 C 1373.480469 816.191406 1373.011719 815.371094 1372.230469 814.941406 "/>
<path fill-rule="nonzero" fill="rgb(21.556091%, 44.309998%, 78.514099%)" fill-opacity="1" d="M 1355.859375 957.585938 L 1435.410156 879.960938 C 1438.171875 877.265625 1437.71875 872.371094 1434.410156 868.96875 L 1433.710938 868.25 C 1430.398438 864.859375 1425.511719 864.289062 1422.75 866.988281 L 1343.199219 944.613281 C 1340.441406 947.308594 1340.890625 952.207031 1344.199219 955.601562 L 1344.898438 956.320312 C 1348.210938 959.714844 1353.101562 960.277344 1355.859375 957.585938 "/>
<path fill-rule="nonzero" fill="rgb(21.556091%, 44.309998%, 78.514099%)" fill-opacity="1" d="M 1374.539062 945.480469 L 1332.710938 901.726562 C 1330.050781 898.941406 1325.121094 899.414062 1321.71875 902.726562 L 1321 903.429688 C 1317.609375 906.738281 1317.070312 911.601562 1319.738281 914.386719 L 1361.570312 958.140625 C 1364.230469 960.925781 1369.160156 960.453125 1372.550781 957.140625 L 1373.269531 956.4375 C 1376.671875 953.128906 1377.199219 948.265625 1374.539062 945.480469 "/>
<path fill-rule="nonzero" fill="rgb(21.556091%, 44.309998%, 78.514099%)" fill-opacity="1" d="M 1372.230469 1012.949219 C 1370.679688 1012.09375 1368.769531 1013.214844 1368.761719 1014.996094 C 1368.570312 1026.160156 1368.828125 1015.5625 1368.640625 1026.695312 C 1368.601562 1028 1369.640625 1029.082031 1370.941406 1029.105469 C 1372.238281 1029.128906 1373.320312 1028.082031 1373.328125 1026.777344 C 1373.519531 1015.613281 1373.25 1026.210938 1373.449219 1015.078125 C 1373.480469 1014.195312 1373.011719 1013.371094 1372.230469 1012.949219 "/>
<path fill-rule="nonzero" fill="rgb(21.556091%, 44.309998%, 78.514099%)" fill-opacity="1" d="M 1480.980469 922.734375 C 1481.839844 921.175781 1480.710938 919.265625 1478.929688 919.261719 C 1467.769531 919.066406 1478.371094 919.332031 1467.230469 919.136719 C 1465.929688 919.101562 1464.851562 920.136719 1464.820312 921.4375 C 1464.800781 922.742188 1465.851562 923.8125 1467.148438 923.824219 C 1478.320312 924.019531 1467.71875 923.753906 1478.851562 923.945312 C 1479.730469 923.976562 1480.558594 923.507812 1480.980469 922.734375 "/>
<path fill-rule="nonzero" fill="rgb(21.556091%, 44.309998%, 78.514099%)" fill-opacity="1" d="M 1278.230469 922.734375 C 1279.089844 921.175781 1277.96875 919.265625 1276.191406 919.261719 C 1265.019531 919.066406 1275.621094 919.332031 1264.480469 919.136719 C 1263.179688 919.101562 1262.101562 920.136719 1262.078125 921.4375 C 1262.050781 922.742188 1263.101562 923.8125 1264.398438 923.824219 C 1275.570312 924.019531 1264.96875 923.753906 1276.109375 923.945312 C 1276.988281 923.976562 1277.808594 923.507812 1278.230469 922.734375 "/>
<path fill-rule="nonzero" fill="rgb(83.59375%, 89.84375%, 100%)" fill-opacity="1" d="M 309.535156 1546.621094 L 309.535156 1295.59375 C 309.535156 1271.121094 332.789062 1251.421875 361.679688 1251.421875 L 620.847656 1251.421875 C 649.734375 1251.421875 672.992188 1271.121094 672.992188 1295.59375 L 672.992188 1546.621094 C 672.992188 1571.09375 649.734375 1590.792969 620.847656 1590.792969 L 361.679688 1590.792969 C 332.789062 1590.792969 309.535156 1571.09375 309.535156 1546.621094 "/>
<path fill-rule="nonzero" fill="rgb(33.325195%, 59.959412%, 100%)" fill-opacity="1" d="M 310.011719 1361.804688 L 310.011719 1298.113281 C 310.011719 1272.25 333.207031 1251.429688 362.019531 1251.429688 L 620.507812 1251.429688 C 649.320312 1251.429688 672.515625 1272.25 672.515625 1298.113281 L 672.515625 1361.804688 L 310.011719 1361.804688 "/>
<path fill-rule="nonzero" fill="rgb(100%, 100%, 100%)" fill-opacity="1" d="M 591.363281 1270.328125 C 594.269531 1281.171875 587.933594 1292.292969 577.214844 1295.164062 C 572.066406 1296.542969 566.574219 1295.796875 561.949219 1293.089844 C 557.320312 1290.382812 553.9375 1285.9375 552.542969 1280.730469 C 551.144531 1275.523438 551.855469 1269.980469 554.507812 1265.324219 C 557.160156 1260.664062 561.542969 1257.273438 566.691406 1255.894531 C 577.410156 1253.023438 588.457031 1259.484375 591.363281 1270.328125 "/>
<path fill-rule="nonzero" fill="rgb(100%, 100%, 100%)" fill-opacity="1" d="M 431.5 1270.328125 C 434.40625 1281.171875 428.070312 1292.292969 417.351562 1295.164062 C 412.203125 1296.542969 406.710938 1295.796875 402.085938 1293.089844 C 397.457031 1290.382812 394.074219 1285.9375 392.679688 1280.730469 C 391.285156 1275.523438 391.992188 1269.980469 394.644531 1265.324219 C 397.296875 1260.664062 401.679688 1257.273438 406.828125 1255.894531 C 417.550781 1253.023438 428.59375 1259.484375 431.5 1270.328125 "/>
<path fill-rule="nonzero" fill="rgb(33.325195%, 59.959412%, 100%)" fill-opacity="1" d="M 583.972656 1223.503906 L 583.792969 1276.308594 C 583.773438 1282.027344 578.652344 1286.609375 572.296875 1286.578125 L 570.949219 1286.574219 C 564.59375 1286.546875 559.484375 1281.917969 559.503906 1276.199219 L 559.683594 1223.394531 C 559.703125 1217.675781 564.824219 1213.09375 571.179688 1213.121094 L 572.527344 1213.128906 C 578.882812 1213.15625 583.992188 1217.78125 583.972656 1223.503906 "/>
<path fill-rule="nonzero" fill="rgb(33.325195%, 59.959412%, 100%)" fill-opacity="1" d="M 424.601562 1223.503906 L 424.425781 1276.308594 C 424.40625 1282.027344 419.28125 1286.609375 412.929688 1286.578125 L 411.578125 1286.574219 C 405.222656 1286.546875 400.117188 1281.917969 400.136719 1276.199219 L 400.3125 1223.394531 C 400.332031 1217.675781 405.453125 1213.09375 411.808594 1213.121094 L 413.160156 1213.128906 C 419.511719 1213.15625 424.621094 1217.78125 424.601562 1223.503906 "/>
<path fill-rule="nonzero" fill="rgb(12.939453%, 26.660156%, 47.068787%)" fill-opacity="1" d="M 565.375 1404.921875 C 562.4375 1405.011719 559.648438 1406.238281 557.601562 1408.34375 L 464.054688 1501.890625 L 424.949219 1440.433594 C 422.816406 1438.242188 419.890625 1437.007812 416.832031 1437.007812 C 406.679688 1437.011719 401.671875 1449.355469 408.953125 1456.433594 L 452.785156 1525.3125 C 452.796875 1525.324219 452.8125 1525.335938 452.824219 1525.347656 C 454.640625 1528.328125 457.730469 1530.304688 461.199219 1530.699219 C 464.667969 1531.097656 468.121094 1529.871094 470.566406 1527.375 L 573.597656 1424.34375 C 576.941406 1421.089844 577.949219 1416.117188 576.128906 1411.820312 C 574.3125 1407.523438 570.039062 1404.785156 565.375 1404.921875 "/>
<path fill-rule="nonzero" fill="rgb(21.556091%, 44.309998%, 78.514099%)" fill-opacity="1" d="M 1081.988281 1495.265625 C 1081.988281 1515.136719 1082.769531 1570.925781 1082.769531 1570.925781 C 1082.769531 1598.71875 1188.289062 1597.484375 1188.289062 1573.027344 C 1188.289062 1573.027344 1188.828125 1536.136719 1188.828125 1489.765625 C 1188.828125 1477.914062 1183.371094 1472.1875 1177.03125 1472.257812 C 1160.210938 1472.441406 1111.210938 1471.6875 1094.410156 1471.6875 C 1088.421875 1471.6875 1081.988281 1472.882812 1081.988281 1486.230469 L 1081.988281 1495.265625 "/>
<path fill-rule="nonzero" fill="rgb(0%, 13.330078%, 33.325195%)" fill-opacity="1" d="M 1083.320312 1478.445312 C 1083.320312 1501.449219 1185.339844 1500.429688 1185.339844 1480.1875 C 1185.339844 1480.1875 1185.199219 1518.023438 1185.199219 1479.644531 C 1185.109375 1459.351562 1084.039062 1459.707031 1083.328125 1478.855469 C 1083.328125 1502.222656 1083.328125 1455.078125 1083.320312 1478.445312 "/>
<path fill-rule="nonzero" fill="rgb(66.601562%, 80.076599%, 100%)" fill-opacity="1" d="M 1101.339844 1458.507812 C 1115.699219 1470.609375 1145.191406 1472.382812 1155.828125 1472.851562 C 1170.398438 1473.492188 1186.878906 1466.671875 1189.589844 1454.089844 C 1195.550781 1426.355469 1171.171875 1412.761719 1138.78125 1385.824219 C 1120.488281 1370.605469 1109.511719 1363.007812 1101.421875 1346.960938 C 1089.960938 1324.21875 1104.199219 1285.675781 1088.671875 1271.636719 C 1073.148438 1257.597656 1054.640625 1260.222656 1041.160156 1268.597656 C 1030.921875 1274.964844 1026.078125 1288.109375 1027.261719 1301.992188 C 1028.429688 1315.875 1044.429688 1333.5 1049.351562 1344.464844 C 1068.578125 1387.375 1069.390625 1431.585938 1101.339844 1458.507812 "/>
<path fill-rule="nonzero" fill="rgb(100%, 100%, 100%)" fill-opacity="1" d="M 1067.570312 1288.285156 C 1067.539062 1288.40625 1067.53125 1288.527344 1067.53125 1288.652344 C 1068.140625 1320.523438 1068.691406 1352.558594 1080.75 1376.203125 C 1092.808594 1399.847656 1116.050781 1414.535156 1126.890625 1429.394531 C 1137.730469 1444.246094 1136.941406 1459.714844 1136.128906 1475.664062 C 1136.089844 1476.160156 1136.320312 1476.640625 1136.738281 1476.914062 C 1137.148438 1477.1875 1137.679688 1477.214844 1138.128906 1476.984375 C 1138.570312 1476.753906 1138.851562 1476.304688 1138.859375 1475.804688 C 1139.679688 1459.855469 1140.519531 1443.417969 1129.109375 1427.777344 C 1117.699219 1412.132812 1094.808594 1397.730469 1083.191406 1374.957031 C 1071.570312 1352.183594 1070.890625 1320.472656 1070.269531 1288.597656 C 1070.269531 1287.90625 1069.75 1287.324219 1069.058594 1287.242188 C 1068.371094 1287.164062 1067.730469 1287.609375 1067.570312 1288.285156 "/>
<path fill-rule="nonzero" fill="rgb(66.601562%, 80.076599%, 100%)" fill-opacity="1" d="M 1130.121094 1355.933594 C 1134.308594 1384.710938 1111.691406 1429.441406 1123.269531 1442.871094 C 1139.109375 1471.09375 1186.988281 1481.980469 1207.550781 1442.386719 C 1227.171875 1404.609375 1232.148438 1383.683594 1216.910156 1313.332031 C 1208.828125 1276.027344 1193.261719 1270.503906 1219.421875 1228.71875 C 1232.441406 1207.921875 1246.621094 1177.703125 1247.058594 1161 C 1247.511719 1138.34375 1228.949219 1112.59375 1207.351562 1105.207031 C 1186.621094 1098.121094 1162.410156 1104.109375 1144.449219 1124.195312 C 1126.488281 1144.28125 1118.621094 1159.75 1112.351562 1190.027344 C 1093.898438 1279.078125 1125.738281 1325.777344 1130.121094 1355.933594 "/>
<path fill-rule="nonzero" fill="rgb(100%, 100%, 100%)" fill-opacity="1" d="M 1191.101562 1168.589844 C 1190.988281 1168.703125 1190.898438 1168.828125 1190.828125 1168.964844 C 1171.378906 1204.203125 1151.75 1239.570312 1150.011719 1273.039062 C 1148.269531 1306.507812 1164.371094 1337.167969 1165.589844 1362.804688 C 1166.800781 1388.4375 1153.519531 1410.1875 1145.511719 1428.441406 C 1137.5 1446.691406 1135.148438 1460.96875 1132.839844 1475.019531 C 1132.730469 1475.632812 1132.960938 1476.257812 1133.441406 1476.652344 C 1133.921875 1477.050781 1134.578125 1477.15625 1135.160156 1476.9375 C 1135.738281 1476.714844 1136.160156 1476.195312 1136.261719 1475.578125 C 1138.558594 1461.53125 1140.828125 1447.707031 1148.679688 1429.832031 C 1156.519531 1411.957031 1170.320312 1389.550781 1169.050781 1362.640625 C 1167.769531 1335.726562 1151.789062 1305.453125 1153.46875 1273.21875 C 1155.140625 1240.984375 1174.410156 1205.878906 1193.859375 1170.640625 C 1194.289062 1169.878906 1194.089844 1168.914062 1193.390625 1168.390625 C 1192.691406 1167.867188 1191.699219 1167.953125 1191.101562 1168.589844 "/>
<path fill-rule="nonzero" fill="rgb(66.601562%, 80.076599%, 100%)" fill-opacity="1" d="M 1297.851562 1352.050781 C 1304.46875 1340.777344 1310.199219 1325.800781 1307.601562 1314.050781 C 1304.039062 1297.96875 1277.859375 1281.074219 1259.238281 1284.378906 C 1227.691406 1289.976562 1219.53125 1316.5625 1199.601562 1359.785156 C 1188.339844 1384.199219 1180.171875 1394.867188 1176.410156 1398.898438 C 1168.390625 1407.484375 1148.03125 1422.152344 1142.238281 1431.554688 C 1136.449219 1440.960938 1138.691406 1457.648438 1145.238281 1465.015625 C 1151.789062 1472.386719 1173.859375 1471.929688 1184.078125 1467.523438 C 1194.300781 1463.121094 1225.269531 1419.574219 1235.800781 1411.007812 C 1277.011719 1377.472656 1283.398438 1376.652344 1297.851562 1352.050781 "/>
<path fill-rule="nonzero" fill="rgb(100%, 100%, 100%)" fill-opacity="1" d="M 1277.710938 1326.113281 C 1277.320312 1326.09375 1276.929688 1326.210938 1276.621094 1326.4375 C 1259.96875 1338.078125 1243.089844 1349.867188 1228.53125 1369.75 C 1213.960938 1389.628906 1201.808594 1417.308594 1190.53125 1433.375 C 1179.25 1449.441406 1168.890625 1454.230469 1159.378906 1459.203125 C 1149.871094 1464.171875 1141.75 1469 1133.660156 1473.8125 C 1133.121094 1474.121094 1132.78125 1474.699219 1132.789062 1475.328125 C 1132.789062 1475.953125 1133.128906 1476.53125 1133.679688 1476.832031 C 1134.230469 1477.136719 1134.898438 1477.117188 1135.429688 1476.785156 C 1143.519531 1471.976562 1151.578125 1467.1875 1160.980469 1462.269531 C 1170.390625 1457.351562 1181.691406 1451.992188 1193.359375 1435.363281 C 1205.03125 1418.734375 1217.121094 1391.175781 1231.320312 1371.796875 C 1245.519531 1352.414062 1261.949219 1340.917969 1278.601562 1329.273438 C 1279.21875 1328.855469 1279.5 1328.089844 1279.300781 1327.371094 C 1279.089844 1326.652344 1278.449219 1326.148438 1277.710938 1326.113281 "/>
<path fill-rule="nonzero" fill="rgb(50.193787%, 70.117188%, 100%)" fill-opacity="1" d="M 433.945312 420.878906 C 421.667969 420.960938 409.355469 429.269531 409.265625 445.550781 L 409.171875 462.058594 L 392.300781 461.890625 C 357.917969 461.539062 358.335938 509.519531 391.738281 509.859375 L 402.316406 509.96875 L 412.960938 482.890625 C 413.417969 481.71875 414.570312 480.960938 415.847656 480.980469 C 417.214844 481 418.398438 481.910156 418.742188 483.199219 L 433.648438 539.039062 L 440.746094 512.441406 C 441.097656 511.121094 442.332031 510.199219 443.730469 510.21875 L 457.945312 510.421875 L 474.878906 510.511719 C 491.527344 510.601562 499.953125 499.390625 500.421875 487.78125 C 500.917969 475.429688 492.390625 462.628906 475.160156 462.539062 L 458.332031 462.441406 L 458.425781 445.839844 C 458.515625 429.589844 447.023438 421.371094 435.132812 420.910156 C 434.738281 420.898438 434.339844 420.878906 433.945312 420.878906 Z M 415.25 493.640625 L 408.789062 510.089844 L 408.617188 526.421875 C 408.449219 542.160156 419.1875 550.429688 430.667969 551.398438 Z M 446.03125 516.179688 L 436.679688 551.25 C 447.617188 549.75 457.617188 541.609375 457.773438 526.96875 L 457.886719 516.351562 L 446.03125 516.179688 "/>
<path fill-rule="nonzero" fill="rgb(66.601562%, 80.076599%, 100%)" fill-opacity="1" d="M 3113.308594 1274.988281 C 3118.761719 1295.335938 3144.75 1315.875 3154.238281 1323.128906 C 3167.230469 1333.058594 3186.761719 1337.351562 3197.320312 1327.511719 C 3220.589844 1305.824219 3206.878906 1277.6875 3194.359375 1232.136719 C 3187.289062 1206.40625 3182.058594 1192.378906 3184.910156 1172.433594 C 3188.960938 1144.164062 3226.769531 1117.835938 3221.488281 1094.964844 C 3216.210938 1072.09375 3197.5 1062.640625 3179.730469 1061.703125 C 3166.230469 1060.996094 3153.351562 1069.984375 3145.519531 1083.507812 C 3137.699219 1097.03125 3141.121094 1123.503906 3138.609375 1136.742188 C 3128.78125 1188.546875 3101.179688 1229.738281 3113.308594 1274.988281 "/>
<path fill-rule="nonzero" fill="rgb(100%, 100%, 100%)" fill-opacity="1" d="M 3191.398438 1096.746094 C 3191.289062 1096.835938 3191.199219 1096.941406 3191.128906 1097.058594 C 3171.25 1126.773438 3151.210938 1156.585938 3147.140625 1186.074219 C 3143.078125 1215.558594 3155.039062 1243.976562 3155.480469 1264.59375 C 3155.929688 1285.207031 3145.28125 1298.929688 3134.308594 1313.078125 C 3133.949219 1313.511719 3133.859375 1314.101562 3134.070312 1314.621094 C 3134.28125 1315.136719 3134.75 1315.503906 3135.300781 1315.574219 C 3135.851562 1315.648438 3136.398438 1315.414062 3136.730469 1314.964844 C 3147.710938 1300.8125 3159.03125 1286.234375 3158.558594 1264.527344 C 3158.089844 1242.820312 3146.269531 1214.894531 3150.191406 1186.492188 C 3154.109375 1158.09375 3173.808594 1128.480469 3193.679688 1098.769531 C 3194.121094 1098.128906 3194.019531 1097.257812 3193.441406 1096.742188 C 3192.851562 1096.230469 3191.980469 1096.230469 3191.398438 1096.746094 "/>
<path fill-rule="nonzero" fill="rgb(66.601562%, 80.076599%, 100%)" fill-opacity="1" d="M 3192.921875 1224.804688 C 3181.359375 1247.898438 3142.160156 1269.003906 3143.769531 1284.667969 C 3140.980469 1313.277344 3170.328125 1345.523438 3205.421875 1327.117188 C 3238.910156 1309.558594 3253.160156 1296.84375 3277.789062 1237.84375 C 3290.851562 1206.558594 3282.308594 1194.625 3322.589844 1177.46875 C 3342.640625 1168.929688 3368.320312 1154.113281 3377.128906 1142.171875 C 3388.960938 1125.890625 3388.511719 1097.699219 3376.519531 1081.347656 C 3365.03125 1065.664062 3344.339844 1057.730469 3321.058594 1063.242188 C 3297.769531 1068.753906 3284.179688 1076.023438 3264.230469 1094.902344 C 3205.570312 1150.414062 3205.039062 1200.605469 3192.921875 1224.804688 "/>
<path fill-rule="nonzero" fill="rgb(100%, 100%, 100%)" fill-opacity="1" d="M 3332.5 1119.277344 C 3332.359375 1119.304688 3332.230469 1119.351562 3332.109375 1119.414062 C 3300.039062 1135.210938 3267.769531 1151.007812 3249.511719 1174.511719 C 3231.25 1198.015625 3227.398438 1228.527344 3215.269531 1247.824219 C 3203.140625 1267.117188 3182.410156 1276.214844 3167.300781 1285.445312 C 3152.199219 1294.679688 3143.238281 1303.886719 3134.421875 1312.949219 C 3134.03125 1313.34375 3133.878906 1313.914062 3134.03125 1314.445312 C 3134.179688 1314.980469 3134.601562 1315.394531 3135.140625 1315.527344 C 3135.671875 1315.660156 3136.238281 1315.496094 3136.621094 1315.09375 C 3145.441406 1306.03125 3154.109375 1297.109375 3168.910156 1288.070312 C 3183.699219 1279.03125 3205.140625 1269.714844 3217.871094 1249.460938 C 3230.609375 1229.203125 3234.351562 1199.035156 3251.941406 1176.398438 C 3269.53125 1153.761719 3301.398438 1137.96875 3333.46875 1122.171875 C 3334.171875 1121.839844 3334.511719 1121.03125 3334.269531 1120.296875 C 3334.019531 1119.558594 3333.261719 1119.121094 3332.5 1119.277344 "/>
<path fill-rule="nonzero" fill="rgb(66.601562%, 80.076599%, 100%)" fill-opacity="1" d="M 3317.089844 1307.164062 C 3327.648438 1302.3125 3339.421875 1294.308594 3343.5 1284.425781 C 3349.070312 1270.902344 3338.578125 1245.300781 3323.339844 1238.25 C 3297.5 1226.300781 3278.058594 1241.53125 3241.578125 1262.898438 C 3220.980469 1274.96875 3209.609375 1278.589844 3204.820312 1279.617188 C 3194.621094 1281.800781 3172.328125 1282.148438 3163.339844 1286.058594 C 3154.339844 1289.96875 3147.5 1303.265625 3148.53125 1311.960938 C 3149.558594 1320.65625 3165.871094 1331.53125 3175.550781 1333.511719 C 3185.238281 1335.496094 3229.921875 1319.5 3241.941406 1318.601562 C 3289 1315.097656 3294.070312 1317.75 3317.089844 1307.164062 "/>
<path fill-rule="nonzero" fill="rgb(100%, 100%, 100%)" fill-opacity="1" d="M 3315.601562 1278.035156 C 3315.320312 1277.824219 3314.980469 1277.714844 3314.640625 1277.71875 C 3296.589844 1277.742188 3278.308594 1277.761719 3257.601562 1284.847656 C 3236.890625 1291.9375 3213.980469 1305.929688 3197.601562 1311.910156 C 3181.230469 1317.886719 3171.238281 1316.117188 3161.789062 1314.90625 C 3152.339844 1313.699219 3143.96875 1313.09375 3135.628906 1312.488281 C 3135.078125 1312.4375 3134.539062 1312.6875 3134.21875 1313.148438 C 3133.910156 1313.605469 3133.859375 1314.199219 3134.109375 1314.699219 C 3134.359375 1315.199219 3134.851562 1315.527344 3135.410156 1315.554688 C 3143.738281 1316.160156 3152.039062 1316.761719 3161.398438 1317.957031 C 3170.75 1319.152344 3181.710938 1320.984375 3198.660156 1314.796875 C 3215.601562 1308.609375 3238.398438 1294.664062 3258.589844 1287.757812 C 3278.78125 1280.851562 3296.589844 1280.820312 3314.640625 1280.792969 C 3315.300781 1280.800781 3315.898438 1280.386719 3316.109375 1279.757812 C 3316.328125 1279.132812 3316.121094 1278.4375 3315.601562 1278.035156 "/>
<path fill-rule="nonzero" fill="rgb(12.939453%, 26.660156%, 47.068787%)" fill-opacity="1" d="M 2205.628906 633.53125 L 3068.269531 633.53125 C 3109.519531 633.53125 3142.738281 663.601562 3142.738281 700.960938 L 3142.738281 1268.488281 C 3142.738281 1305.847656 3109.519531 1335.917969 3068.269531 1335.917969 L 2205.628906 1335.917969 C 2164.371094 1335.917969 2131.160156 1305.847656 2131.160156 1268.488281 L 2131.160156 700.960938 C 2131.160156 663.601562 2164.371094 633.53125 2205.628906 633.53125 "/>
<path fill-rule="nonzero" fill="rgb(100%, 100%, 100%)" fill-opacity="1" d="M 2235.488281 669.730469 L 3038.398438 669.730469 C 3076.800781 669.730469 3107.71875 680.140625 3107.71875 718.898438 L 3107.71875 1208.789062 C 3107.71875 1247.546875 3112.570312 1278.746094 3058.140625 1278.746094 L 2209.589844 1278.746094 C 2160.089844 1278.746094 2166.179688 1247.546875 2166.179688 1208.789062 L 2166.179688 718.898438 C 2166.179688 680.140625 2197.089844 669.730469 2235.488281 669.730469 "/>
<path fill-rule="nonzero" fill="rgb(12.939453%, 26.660156%, 47.068787%)" fill-opacity="1" d="M 3205.320312 1305.148438 L 2066.828125 1305.148438 C 2056.441406 1316.59375 2073.238281 1357.554688 2091.25 1358.179688 L 3182.648438 1358.179688 C 3211.429688 1356.039062 3219.351562 1305.65625 3205.320312 1305.148438 "/>
<path fill-rule="nonzero" fill="rgb(100%, 100%, 100%)" fill-opacity="1" d="M 2790.488281 1305.746094 L 2485.230469 1305.746094 C 2478.5 1305.746094 2473.070312 1309.253906 2473.070312 1313.613281 C 2473.070312 1317.972656 2478.5 1321.484375 2485.230469 1321.484375 L 2790.488281 1321.484375 C 2797.230469 1321.484375 2802.648438 1317.972656 2802.648438 1313.613281 C 2802.648438 1309.253906 2797.230469 1305.746094 2790.488281 1305.746094 "/>
<path fill-rule="nonzero" fill="rgb(50.193787%, 70.117188%, 100%)" fill-opacity="1" d="M 2380.851562 920.132812 L 2380.851562 1312.5 C 2380.851562 1338.027344 2354.71875 1358.574219 2322.269531 1358.574219 L 2084.621094 1358.574219 C 2052.160156 1358.574219 2026.03125 1338.027344 2026.03125 1312.5 L 2026.03125 920.132812 C 2026.03125 894.605469 2052.160156 874.058594 2084.621094 874.058594 L 2322.269531 874.058594 C 2354.71875 874.058594 2380.851562 894.605469 2380.851562 920.132812 "/>
<path fill-rule="nonzero" fill="rgb(100%, 100%, 100%)" fill-opacity="1" d="M 2361.589844 1298.855469 L 2361.589844 919.613281 C 2361.589844 894.941406 2338.140625 875.078125 2309.019531 875.078125 L 2095.769531 875.078125 C 2066.640625 875.078125 2043.191406 894.941406 2043.191406 919.613281 L 2043.191406 1298.855469 C 2043.191406 1323.53125 2066.640625 1343.394531 2095.769531 1343.394531 L 2309.019531 1343.394531 C 2338.140625 1343.394531 2361.589844 1323.53125 2361.589844 1298.855469 "/>
<path fill-rule="nonzero" fill="rgb(83.59375%, 89.84375%, 100%)" fill-opacity="1" d="M 2227.171875 969.816406 L 2305.699219 969.574219 C 2306.628906 969.570312 2307.449219 970.453125 2307.53125 971.574219 C 2307.609375 972.695312 2306.929688 973.621094 2305.988281 973.621094 L 2227.460938 973.867188 C 2226.53125 973.867188 2225.71875 972.988281 2225.640625 971.867188 C 2225.550781 970.742188 2226.238281 969.820312 2227.171875 969.816406 "/>
<path fill-rule="nonzero" fill="rgb(83.59375%, 89.84375%, 100%)" fill-opacity="1" d="M 2227.171875 1011.019531 L 2305.699219 1010.773438 C 2306.628906 1010.773438 2307.449219 1011.652344 2307.53125 1012.773438 C 2307.609375 1013.898438 2306.929688 1014.820312 2305.988281 1014.824219 L 2227.460938 1015.066406 C 2226.53125 1015.070312 2225.71875 1014.1875 2225.640625 1013.066406 C 2225.550781 1011.945312 2226.238281 1011.019531 2227.171875 1011.019531 "/>
<path fill-rule="nonzero" fill="rgb(83.59375%, 89.84375%, 100%)" fill-opacity="1" d="M 2203.910156 990.417969 L 2328.949219 990.175781 C 2329.878906 990.171875 2330.699219 991.054688 2330.78125 992.175781 C 2330.859375 993.296875 2330.179688 994.222656 2329.25 994.222656 L 2204.210938 994.464844 C 2203.28125 994.46875 2202.460938 993.585938 2202.378906 992.464844 C 2202.300781 991.34375 2202.980469 990.421875 2203.910156 990.417969 "/>
<path fill-rule="nonzero" fill="rgb(33.325195%, 59.959412%, 100%)" fill-opacity="1" d="M 2236.308594 821.328125 C 2241.351562 840.140625 2230.359375 859.421875 2211.769531 864.410156 C 2202.839844 866.800781 2193.308594 865.511719 2185.289062 860.808594 C 2177.261719 856.121094 2171.398438 848.398438 2168.980469 839.371094 C 2166.558594 830.339844 2167.78125 820.730469 2172.378906 812.648438 C 2176.988281 804.570312 2184.589844 798.691406 2193.519531 796.289062 C 2212.109375 791.308594 2231.269531 802.519531 2236.308594 821.328125 "/>
<path fill-rule="nonzero" fill="rgb(33.325195%, 59.959412%, 100%)" fill-opacity="1" d="M 2137.898438 856.140625 L 2267.589844 856.488281 C 2278.441406 856.519531 2287.128906 866.621094 2287.070312 879.152344 L 2287.058594 881.8125 C 2287.011719 894.339844 2278.230469 904.402344 2267.378906 904.371094 L 2137.699219 904.023438 C 2126.851562 903.992188 2118.160156 893.882812 2118.210938 881.355469 L 2118.21875 878.695312 C 2118.269531 866.171875 2127.050781 856.109375 2137.898438 856.140625 "/>
<path fill-rule="nonzero" fill="rgb(100%, 100%, 100%)" fill-opacity="1" d="M 2221.191406 825.378906 C 2223.960938 835.738281 2217.910156 846.371094 2207.671875 849.109375 C 2202.75 850.429688 2197.5 849.71875 2193.078125 847.128906 C 2188.660156 844.539062 2185.429688 840.300781 2184.101562 835.320312 C 2182.761719 830.339844 2183.441406 825.050781 2185.96875 820.601562 C 2188.511719 816.148438 2192.699219 812.910156 2197.621094 811.589844 C 2207.859375 808.851562 2218.410156 815.019531 2221.191406 825.378906 "/>
<path fill-rule="nonzero" fill="rgb(17.259216%, 35.301208%, 62.693787%)" fill-opacity="1" d="M 2085.761719 1014.214844 L 2085.761719 924.546875 L 2118.808594 924.546875 C 2131.269531 924.546875 2131.269531 924.546875 2136.898438 926.992188 C 2142.570312 929.378906 2142.570312 929.378906 2145.96875 935.554688 C 2149.359375 941.734375 2149.359375 941.734375 2149.359375 949.6875 C 2149.359375 959.777344 2149.359375 959.777344 2144.21875 966.382812 C 2139.070312 972.929688 2139.070312 972.929688 2128.828125 974.640625 C 2133.929688 978.066406 2133.929688 978.066406 2137.210938 982.164062 C 2140.558594 986.261719 2140.558594 986.261719 2146.179688 996.722656 L 2155.679688 1014.214844 L 2136.898438 1014.214844 L 2125.539062 994.703125 C 2119.5 984.242188 2119.5 984.242188 2117.269531 981.554688 C 2115.039062 978.800781 2115.039062 978.800781 2112.550781 977.820312 C 2110.050781 976.78125 2110.050781 976.78125 2104.640625 976.78125 L 2101.460938 976.78125 L 2101.460938 1014.214844 Z M 2101.460938 962.46875 L 2113.078125 962.46875 C 2124.378906 962.46875 2124.378906 962.46875 2127.191406 961.367188 C 2130 960.265625 2130 960.265625 2131.589844 957.574219 C 2133.179688 954.882812 2133.179688 954.882812 2133.179688 950.847656 C 2133.179688 946.320312 2133.179688 946.320312 2131.058594 943.570312 C 2128.988281 940.753906 2128.988281 940.753906 2125.171875 940.019531 C 2123.261719 939.714844 2123.261719 939.714844 2113.710938 939.714844 L 2101.460938 939.714844 L 2101.460938 962.46875 "/>
<path fill-rule="nonzero" fill="rgb(17.259216%, 35.301208%, 62.693787%)" fill-opacity="1" d="M 2126.289062 1060.09375 L 2144.921875 1027.902344 L 2127.480469 997.839844 L 2144.230469 997.722656 L 2153.878906 1014.777344 L 2163.859375 997.59375 L 2180.640625 997.484375 L 2162.480469 1027.089844 L 2182.621094 1059.722656 L 2165.078125 1059.839844 L 2154.011719 1040.628906 L 2143.019531 1059.984375 L 2126.289062 1060.09375 "/>
<path fill-rule="nonzero" fill="rgb(83.59375%, 89.84375%, 100%)" fill-opacity="1" d="M 2089.898438 1134.195312 L 2299.191406 1134.246094 C 2300.460938 1134.246094 2301.558594 1135.300781 2301.640625 1136.605469 C 2301.730469 1137.910156 2300.769531 1138.957031 2299.5 1138.957031 L 2090.210938 1138.90625 C 2088.929688 1138.90625 2087.839844 1137.851562 2087.75 1136.546875 C 2087.660156 1135.242188 2088.621094 1134.195312 2089.898438 1134.195312 "/>
<path fill-rule="nonzero" fill="rgb(83.59375%, 89.84375%, 100%)" fill-opacity="1" d="M 2090.050781 1113.527344 L 2324.519531 1113.65625 C 2325.800781 1113.65625 2326.890625 1114.707031 2326.980469 1116.011719 C 2327.058594 1117.316406 2326.109375 1118.367188 2324.828125 1118.363281 L 2090.359375 1118.238281 C 2089.089844 1118.238281 2087.988281 1117.1875 2087.910156 1115.882812 C 2087.820312 1114.574219 2088.78125 1113.527344 2090.050781 1113.527344 "/>
<path fill-rule="nonzero" fill="rgb(83.59375%, 89.84375%, 100%)" fill-opacity="1" d="M 2089.898438 1195.578125 L 2299.191406 1195.628906 C 2300.460938 1195.628906 2301.558594 1196.683594 2301.640625 1197.988281 C 2301.730469 1199.292969 2300.769531 1200.339844 2299.5 1200.339844 L 2090.210938 1200.289062 C 2088.929688 1200.289062 2087.839844 1199.238281 2087.75 1197.933594 C 2087.660156 1196.628906 2088.621094 1195.578125 2089.898438 1195.578125 "/>
<path fill-rule="nonzero" fill="rgb(83.59375%, 89.84375%, 100%)" fill-opacity="1" d="M 2090.050781 1174.910156 L 2324.519531 1175.039062 C 2325.800781 1175.039062 2326.890625 1176.09375 2326.980469 1177.398438 C 2327.058594 1178.703125 2326.109375 1179.75 2324.828125 1179.75 L 2090.359375 1179.621094 C 2089.089844 1179.621094 2087.988281 1178.570312 2087.910156 1177.265625 C 2087.820312 1175.960938 2088.78125 1174.910156 2090.050781 1174.910156 "/>
<path fill-rule="nonzero" fill="rgb(83.59375%, 89.84375%, 100%)" fill-opacity="1" d="M 2089.898438 1257.476562 L 2299.191406 1257.527344 C 2300.460938 1257.527344 2301.558594 1258.582031 2301.640625 1259.886719 C 2301.730469 1261.191406 2300.769531 1262.238281 2299.5 1262.238281 L 2090.210938 1262.1875 C 2088.929688 1262.1875 2087.839844 1261.132812 2087.75 1259.828125 C 2087.660156 1258.523438 2088.621094 1257.476562 2089.898438 1257.476562 "/>
<path fill-rule="nonzero" fill="rgb(83.59375%, 89.84375%, 100%)" fill-opacity="1" d="M 2090.050781 1236.808594 L 2324.519531 1236.9375 C 2325.800781 1236.9375 2326.890625 1237.988281 2326.980469 1239.296875 C 2327.058594 1240.601562 2326.109375 1241.648438 2324.828125 1241.648438 L 2090.359375 1241.519531 C 2089.089844 1241.519531 2087.988281 1240.46875 2087.910156 1239.160156 C 2087.820312 1237.859375 2088.78125 1236.808594 2090.050781 1236.808594 "/>
<path fill-rule="nonzero" fill="rgb(21.556091%, 44.309998%, 78.514099%)" fill-opacity="1" d="M 1887.078125 1339.761719 L 1887.078125 1197.667969 C 1887.078125 1188.425781 1896.539062 1180.984375 1908.289062 1180.984375 L 1994.351562 1180.984375 C 2006.109375 1180.984375 2015.570312 1188.425781 2015.570312 1197.667969 L 2015.570312 1339.761719 C 2015.570312 1349.003906 2006.109375 1356.445312 1994.351562 1356.445312 L 1908.289062 1356.445312 C 1896.539062 1356.445312 1887.078125 1349.003906 1887.078125 1339.761719 "/>
<path fill-rule="nonzero" fill="rgb(100%, 44.309998%, 50.193787%)" fill-opacity="1" d="M 1916.261719 1200.265625 C 1913 1200.265625 1906.449219 1200.265625 1906.449219 1200.265625 C 1895.019531 1200.289062 1895.429688 1215.386719 1906.53125 1215.367188 C 1906.53125 1215.367188 1909.75 1215.347656 1917.351562 1215.347656 C 1919.300781 1215.347656 1918.941406 1214.578125 1918.898438 1213.683594 C 1918.808594 1211.308594 1918.96875 1204.460938 1918.898438 1202.089844 C 1918.878906 1201.242188 1919.039062 1200.265625 1917.738281 1200.265625 L 1916.261719 1200.265625 "/>
<path fill-rule="nonzero" fill="rgb(100%, 100%, 100%)" fill-opacity="1" d="M 1920.859375 1200.265625 C 1924.121094 1200.265625 1930.660156 1200.265625 1930.660156 1200.265625 C 1942.089844 1200.289062 1941.691406 1215.386719 1930.578125 1215.367188 C 1930.578125 1215.367188 1927.359375 1215.347656 1919.761719 1215.347656 C 1917.820312 1215.347656 1918.179688 1214.578125 1918.21875 1213.683594 C 1918.308594 1211.308594 1918.148438 1204.460938 1918.21875 1202.089844 C 1918.238281 1201.242188 1918.070312 1200.265625 1919.378906 1200.265625 L 1920.859375 1200.265625 "/>
<path fill-rule="nonzero" fill="rgb(100%, 44.309998%, 50.193787%)" fill-opacity="1" d="M 1916.261719 1239.914062 C 1913 1239.914062 1906.449219 1239.914062 1906.449219 1239.914062 C 1895.019531 1239.941406 1895.429688 1255.035156 1906.53125 1255.019531 C 1906.53125 1255.019531 1909.75 1254.996094 1917.351562 1254.996094 C 1919.300781 1254.996094 1918.941406 1254.226562 1918.898438 1253.332031 C 1918.808594 1250.957031 1918.96875 1244.109375 1918.898438 1241.738281 C 1918.878906 1240.894531 1919.039062 1239.914062 1917.738281 1239.914062 L 1916.261719 1239.914062 "/>
<path fill-rule="nonzero" fill="rgb(100%, 100%, 100%)" fill-opacity="1" d="M 1920.859375 1239.914062 C 1924.121094 1239.914062 1930.660156 1239.914062 1930.660156 1239.914062 C 1942.089844 1239.941406 1941.691406 1255.035156 1930.578125 1255.019531 C 1930.578125 1255.019531 1927.359375 1254.996094 1919.761719 1254.996094 C 1917.820312 1254.996094 1918.179688 1254.226562 1918.21875 1253.332031 C 1918.308594 1250.957031 1918.148438 1244.109375 1918.21875 1241.738281 C 1918.238281 1240.894531 1918.070312 1239.914062 1919.378906 1239.914062 L 1920.859375 1239.914062 "/>
<path fill-rule="nonzero" fill="rgb(100%, 44.309998%, 50.193787%)" fill-opacity="1" d="M 1916.261719 1279.566406 C 1913 1279.566406 1906.449219 1279.5625 1906.449219 1279.5625 C 1895.019531 1279.589844 1895.429688 1294.683594 1906.53125 1294.667969 C 1906.53125 1294.667969 1909.75 1294.644531 1917.351562 1294.644531 C 1919.300781 1294.644531 1918.941406 1293.875 1918.898438 1292.980469 C 1918.808594 1290.605469 1918.96875 1283.757812 1918.898438 1281.386719 C 1918.878906 1280.542969 1919.039062 1279.566406 1917.738281 1279.566406 L 1916.261719 1279.566406 "/>
<path fill-rule="nonzero" fill="rgb(100%, 100%, 100%)" fill-opacity="1" d="M 1920.859375 1279.566406 C 1924.121094 1279.566406 1930.660156 1279.5625 1930.660156 1279.5625 C 1942.089844 1279.589844 1941.691406 1294.683594 1930.578125 1294.667969 C 1930.578125 1294.667969 1927.359375 1294.644531 1919.761719 1294.644531 C 1917.820312 1294.644531 1918.179688 1293.875 1918.21875 1292.980469 C 1918.308594 1290.605469 1918.148438 1283.757812 1918.21875 1281.386719 C 1918.238281 1280.542969 1918.070312 1279.566406 1919.378906 1279.566406 L 1920.859375 1279.566406 "/>
<path fill-rule="nonzero" fill="rgb(100%, 44.309998%, 50.193787%)" fill-opacity="1" d="M 1916.261719 1319.214844 C 1913 1319.214844 1906.449219 1319.214844 1906.449219 1319.214844 C 1895.019531 1319.238281 1895.429688 1334.335938 1906.53125 1334.316406 C 1906.53125 1334.316406 1909.75 1334.296875 1917.351562 1334.296875 C 1919.300781 1334.296875 1918.941406 1333.523438 1918.898438 1332.628906 C 1918.808594 1330.253906 1918.96875 1323.40625 1918.898438 1321.035156 C 1918.878906 1320.191406 1919.039062 1319.214844 1917.738281 1319.214844 L 1916.261719 1319.214844 "/>
<path fill-rule="nonzero" fill="rgb(100%, 100%, 100%)" fill-opacity="1" d="M 1920.859375 1319.214844 C 1924.121094 1319.214844 1930.660156 1319.214844 1930.660156 1319.214844 C 1942.089844 1319.238281 1941.691406 1334.335938 1930.578125 1334.316406 C 1930.578125 1334.316406 1927.359375 1334.296875 1919.761719 1334.296875 C 1917.820312 1334.296875 1918.179688 1333.523438 1918.21875 1332.628906 C 1918.308594 1330.253906 1918.148438 1323.40625 1918.21875 1321.035156 C 1918.238281 1320.191406 1918.070312 1319.214844 1919.378906 1319.214844 L 1920.859375 1319.214844 "/>
<path fill-rule="nonzero" fill="rgb(100%, 44.309998%, 50.193787%)" fill-opacity="1" d="M 1981.351562 1200.265625 C 1978.089844 1200.265625 1971.550781 1200.265625 1971.550781 1200.265625 C 1960.121094 1200.289062 1960.519531 1215.386719 1971.628906 1215.367188 C 1971.628906 1215.367188 1974.851562 1215.347656 1982.449219 1215.347656 C 1984.390625 1215.347656 1984.03125 1214.578125 1984 1213.683594 C 1983.898438 1211.308594 1984.058594 1204.460938 1983.988281 1202.089844 C 1983.96875 1201.242188 1984.140625 1200.265625 1982.828125 1200.265625 L 1981.351562 1200.265625 "/>
<path fill-rule="nonzero" fill="rgb(33.325195%, 59.959412%, 100%)" fill-opacity="1" d="M 1985.949219 1200.265625 C 1989.210938 1200.265625 1995.761719 1200.265625 1995.761719 1200.265625 C 2007.191406 1200.289062 2006.78125 1215.386719 1995.679688 1215.367188 C 1995.679688 1215.367188 1992.460938 1215.347656 1984.859375 1215.347656 C 1982.921875 1215.347656 1983.269531 1214.578125 1983.308594 1213.683594 C 1983.410156 1211.308594 1983.238281 1204.460938 1983.308594 1202.089844 C 1983.339844 1201.242188 1983.171875 1200.265625 1984.46875 1200.265625 L 1985.949219 1200.265625 "/>
<path fill-rule="nonzero" fill="rgb(100%, 44.309998%, 50.193787%)" fill-opacity="1" d="M 1981.351562 1239.914062 C 1978.089844 1239.914062 1971.550781 1239.914062 1971.550781 1239.914062 C 1960.121094 1239.941406 1960.519531 1255.035156 1971.628906 1255.019531 C 1971.628906 1255.019531 1974.851562 1254.996094 1982.449219 1254.996094 C 1984.390625 1254.996094 1984.03125 1254.226562 1984 1253.332031 C 1983.898438 1250.957031 1984.058594 1244.109375 1983.988281 1241.738281 C 1983.96875 1240.894531 1984.140625 1239.914062 1982.828125 1239.914062 L 1981.351562 1239.914062 "/>
<path fill-rule="nonzero" fill="rgb(33.325195%, 59.959412%, 100%)" fill-opacity="1" d="M 1985.949219 1239.914062 C 1989.210938 1239.914062 1995.761719 1239.914062 1995.761719 1239.914062 C 2007.191406 1239.941406 2006.78125 1255.035156 1995.679688 1255.019531 C 1995.679688 1255.019531 1992.460938 1254.996094 1984.859375 1254.996094 C 1982.921875 1254.996094 1983.269531 1254.226562 1983.308594 1253.332031 C 1983.410156 1250.957031 1983.238281 1244.109375 1983.308594 1241.738281 C 1983.339844 1240.894531 1983.171875 1239.914062 1984.46875 1239.914062 L 1985.949219 1239.914062 "/>
<path fill-rule="nonzero" fill="rgb(100%, 44.309998%, 50.193787%)" fill-opacity="1" d="M 1981.351562 1279.566406 C 1978.089844 1279.566406 1971.550781 1279.5625 1971.550781 1279.5625 C 1960.121094 1279.589844 1960.519531 1294.683594 1971.628906 1294.667969 C 1971.628906 1294.667969 1974.851562 1294.644531 1982.449219 1294.644531 C 1984.390625 1294.644531 1984.03125 1293.875 1984 1292.980469 C 1983.898438 1290.605469 1984.058594 1283.757812 1983.988281 1281.386719 C 1983.96875 1280.542969 1984.140625 1279.566406 1982.828125 1279.566406 L 1981.351562 1279.566406 "/>
<path fill-rule="nonzero" fill="rgb(33.325195%, 59.959412%, 100%)" fill-opacity="1" d="M 1985.949219 1279.566406 C 1989.210938 1279.566406 1995.761719 1279.5625 1995.761719 1279.5625 C 2007.191406 1279.589844 2006.78125 1294.683594 1995.679688 1294.667969 C 1995.679688 1294.667969 1992.460938 1294.644531 1984.859375 1294.644531 C 1982.921875 1294.644531 1983.269531 1293.875 1983.308594 1292.980469 C 1983.410156 1290.605469 1983.238281 1283.757812 1983.308594 1281.386719 C 1983.339844 1280.542969 1983.171875 1279.566406 1984.46875 1279.566406 L 1985.949219 1279.566406 "/>
<path fill-rule="nonzero" fill="rgb(100%, 44.309998%, 50.193787%)" fill-opacity="1" d="M 1981.351562 1319.214844 C 1978.089844 1319.214844 1971.550781 1319.214844 1971.550781 1319.214844 C 1960.121094 1319.238281 1960.519531 1334.335938 1971.628906 1334.316406 C 1971.628906 1334.316406 1974.851562 1334.296875 1982.449219 1334.296875 C 1984.390625 1334.296875 1984.03125 1333.523438 1984 1332.628906 C 1983.898438 1330.253906 1984.058594 1323.40625 1983.988281 1321.035156 C 1983.96875 1320.191406 1984.140625 1319.214844 1982.828125 1319.214844 L 1981.351562 1319.214844 "/>
<path fill-rule="nonzero" fill="rgb(33.325195%, 59.959412%, 100%)" fill-opacity="1" d="M 1985.949219 1319.214844 C 1989.210938 1319.214844 1995.761719 1319.214844 1995.761719 1319.214844 C 2007.191406 1319.238281 2006.78125 1334.335938 1995.679688 1334.316406 C 1995.679688 1334.316406 1992.460938 1334.296875 1984.859375 1334.296875 C 1982.921875 1334.296875 1983.269531 1333.523438 1983.308594 1332.628906 C 1983.410156 1330.253906 1983.238281 1323.40625 1983.308594 1321.035156 C 1983.339844 1320.191406 1983.171875 1319.214844 1984.46875 1319.214844 L 1985.949219 1319.214844 "/>
<path fill-rule="nonzero" fill="rgb(50.193787%, 70.117188%, 100%)" fill-opacity="1" d="M 1952.828125 1353.433594 L 1952.828125 1183.992188 C 1952.828125 1182.707031 1952.160156 1181.671875 1951.320312 1181.671875 C 1950.488281 1181.671875 1949.820312 1182.707031 1949.820312 1183.992188 L 1949.820312 1353.433594 C 1949.820312 1354.722656 1950.488281 1355.761719 1951.320312 1355.761719 C 1952.160156 1355.761719 1952.828125 1354.722656 1952.828125 1353.433594 "/>
<path fill-rule="nonzero" fill="rgb(50.193787%, 70.117188%, 100%)" fill-opacity="1" d="M 1952.480469 1176.761719 C 1952.480469 1181.941406 1952.480469 1188.980469 1952.480469 1198.851562 C 1952.480469 1205.824219 1952.480469 1211.773438 1952.480469 1219.996094 C 1952.480469 1238.699219 1952.46875 1259.472656 1952.46875 1277 C 1952.46875 1281.074219 1952.46875 1297.523438 1952.46875 1288.632812 C 1952.46875 1271.730469 1952.46875 1320.277344 1952.46875 1320.277344 C 1952.46875 1369.191406 2120.011719 1374.105469 2125.519531 1323.246094 C 2125.519531 1323.246094 2125.488281 1319.960938 2125.460938 1304.054688 C 2125.449219 1299.410156 2125.441406 1281.953125 2125.429688 1277.023438 C 2125.390625 1259.65625 2125.351562 1244.519531 2125.320312 1221.90625 C 2125.308594 1213.929688 2125.300781 1205.863281 2125.300781 1197.871094 C 2125.289062 1186.964844 2125.28125 1179.203125 2125.28125 1169.011719 C 2121.53125 1116.816406 1951.199219 1117.285156 1952.480469 1164.027344 L 1952.480469 1176.761719 "/>
<path fill-rule="nonzero" fill="rgb(50.193787%, 70.117188%, 100%)" fill-opacity="1" d="M 1979 1092.996094 L 2098.910156 1093.320312 C 2108.941406 1093.347656 2116.980469 1102.691406 2116.929688 1114.277344 L 2116.921875 1116.738281 C 2116.871094 1128.320312 2108.75 1137.625 2098.71875 1137.597656 L 1978.808594 1137.273438 C 1968.769531 1137.246094 1960.738281 1127.898438 1960.789062 1116.316406 L 1960.800781 1113.855469 C 1960.851562 1102.269531 1968.960938 1092.96875 1979 1092.996094 "/>
<path fill-rule="nonzero" fill="rgb(100%, 100%, 100%)" fill-opacity="1" d="M 1974.421875 1201.894531 C 1974.421875 1204.804688 1974.421875 1208.757812 1974.421875 1214.304688 C 1974.421875 1218.222656 1974.421875 1221.566406 1974.421875 1226.1875 C 1974.421875 1236.695312 1974.410156 1248.367188 1974.410156 1258.214844 C 1974.410156 1260.503906 1974.410156 1269.746094 1974.410156 1264.753906 C 1974.410156 1255.253906 1974.410156 1282.53125 1974.410156 1282.53125 C 1974.410156 1310.015625 2095.960938 1312.777344 2099.949219 1284.199219 C 2099.949219 1284.199219 2099.941406 1282.351562 2099.910156 1273.414062 C 2099.910156 1270.804688 2099.898438 1260.996094 2099.890625 1258.230469 C 2099.871094 1248.472656 2099.828125 1239.964844 2099.808594 1227.257812 C 2099.808594 1222.777344 2099.800781 1218.246094 2099.789062 1213.757812 C 2099.789062 1207.628906 2099.78125 1203.265625 2099.78125 1197.539062 C 2097.058594 1168.214844 1973.488281 1168.476562 1974.421875 1194.738281 L 1974.421875 1201.894531 "/>
<path fill-rule="nonzero" fill="rgb(100%, 44.309998%, 50.193787%)" fill-opacity="1" d="M 2056.140625 1343.328125 C 2074.980469 1365.472656 2108.738281 1367.683594 2131.570312 1348.269531 C 2154.390625 1328.855469 2157.621094 1295.167969 2138.78125 1273.027344 C 2119.949219 1250.886719 2086.179688 1248.675781 2063.359375 1268.089844 C 2040.539062 1287.503906 2037.308594 1321.1875 2056.140625 1343.328125 "/>
<path fill-rule="nonzero" fill="rgb(100%, 100%, 100%)" fill-opacity="1" d="M 2065.890625 1315.628906 L 2119.851562 1284.628906 C 2124.371094 1282.035156 2129.941406 1283.339844 2132.339844 1287.550781 L 2132.851562 1288.445312 C 2135.25 1292.65625 2133.550781 1298.136719 2129.039062 1300.730469 L 2075.070312 1331.726562 C 2070.558594 1334.320312 2064.988281 1333.019531 2062.589844 1328.808594 L 2062.078125 1327.910156 C 2059.671875 1323.699219 2061.371094 1318.222656 2065.890625 1315.628906 "/>
<path fill-rule="nonzero" fill="rgb(21.556091%, 44.309998%, 78.514099%)" fill-opacity="1" d="M 3357.648438 568.570312 L 3170.75 567.941406 C 3154.269531 567.878906 3140.960938 581.871094 3140.910156 599.238281 L 3140.679688 688.988281 C 3140.628906 706.359375 3153.871094 720.339844 3170.359375 720.398438 L 3336.109375 720.988281 L 3354.609375 741.488281 C 3354.609375 741.488281 3353.648438 721.019531 3357.25 721.03125 C 3373.738281 721.058594 3387.050781 707.101562 3387.089844 689.730469 L 3387.328125 599.980469 C 3387.371094 582.609375 3374.128906 568.621094 3357.648438 568.570312 "/>
<path fill-rule="nonzero" fill="rgb(100%, 100%, 100%)" fill-opacity="1" d="M 3342.039062 609.449219 L 3188.25 609.851562 C 3185.339844 609.859375 3182.839844 613.210938 3182.640625 617.371094 C 3182.449219 621.53125 3184.628906 624.878906 3187.539062 624.871094 L 3341.328125 624.460938 C 3344.238281 624.460938 3346.738281 621.109375 3346.941406 616.949219 C 3347.128906 612.789062 3344.949219 609.441406 3342.039062 609.449219 "/>
<path fill-rule="nonzero" fill="rgb(100%, 100%, 100%)" fill-opacity="1" d="M 3342.398438 660.011719 L 3246.089844 660.171875 C 3243.179688 660.171875 3240.679688 663.53125 3240.480469 667.691406 C 3240.289062 671.851562 3242.46875 675.191406 3245.378906 675.191406 L 3341.691406 675.019531 C 3344.601562 675.019531 3347.101562 671.671875 3347.289062 667.511719 C 3347.488281 663.351562 3345.308594 660 3342.398438 660.011719 "/>
<path fill-rule="nonzero" fill="rgb(50.193787%, 70.117188%, 100%)" fill-opacity="1" d="M 2904.359375 777.710938 L 3215.160156 777.058594 C 3229.480469 777.03125 3241.03125 791.421875 3241.070312 809.328125 L 3241.269531 901.855469 C 3241.308594 919.765625 3229.820312 934.183594 3215.511719 934.246094 L 2923.058594 934.851562 L 2907 955.988281 C 2907 955.988281 2907.828125 934.886719 2904.710938 934.894531 C 2890.398438 934.925781 2878.839844 920.535156 2878.800781 902.625 L 2878.601562 810.101562 C 2878.558594 792.191406 2890.050781 777.738281 2904.359375 777.710938 "/>
<path fill-rule="nonzero" fill="rgb(100%, 100%, 100%)" fill-opacity="1" d="M 3108.238281 808.488281 L 2954.460938 808.890625 C 2951.550781 808.898438 2949.039062 812.25 2948.851562 816.410156 C 2948.648438 820.570312 2950.828125 823.921875 2953.738281 823.910156 L 3107.53125 823.5 C 3110.441406 823.5 3112.941406 820.148438 3113.140625 815.988281 C 3113.339844 811.828125 3111.148438 808.480469 3108.238281 808.488281 "/>
<path fill-rule="nonzero" fill="rgb(100%, 100%, 100%)" fill-opacity="1" d="M 3167.601562 850.238281 L 3071.300781 850.398438 C 3068.390625 850.410156 3065.890625 853.761719 3065.691406 857.921875 C 3065.488281 862.078125 3067.671875 865.421875 3070.578125 865.421875 L 3166.890625 865.261719 C 3169.800781 865.25 3172.300781 861.898438 3172.5 857.738281 C 3172.699219 853.578125 3170.511719 850.230469 3167.601562 850.238281 "/>
<path fill-rule="nonzero" fill="rgb(100%, 100%, 100%)" fill-opacity="1" d="M 3119.589844 889.601562 L 2965.800781 890.003906 C 2962.890625 890.011719 2960.390625 893.359375 2960.191406 897.519531 C 2960 901.679688 2962.179688 905.027344 2965.089844 905.019531 L 3118.878906 904.617188 C 3121.789062 904.609375 3124.289062 901.257812 3124.488281 897.101562 C 3124.679688 892.941406 3122.5 889.59375 3119.589844 889.601562 "/>
<path fill-rule="nonzero" fill="rgb(21.556091%, 44.309998%, 78.514099%)" fill-opacity="1" d="M 2637.980469 806.050781 C 2606.339844 806.230469 2574.601562 827.648438 2574.371094 869.628906 L 2574.128906 912.15625 L 2530.648438 911.722656 C 2442.03125 910.832031 2443.109375 1034.5 2529.199219 1035.363281 L 2556.460938 1035.652344 L 2583.898438 965.84375 C 2585.078125 962.84375 2588.050781 960.882812 2591.339844 960.933594 C 2594.859375 960.988281 2597.910156 963.328125 2598.800781 966.652344 L 2637.210938 1110.566406 L 2655.5 1042.015625 C 2656.410156 1038.605469 2659.589844 1036.246094 2663.199219 1036.296875 L 2699.828125 1036.804688 L 2743.46875 1037.042969 C 2786.390625 1037.28125 2808.109375 1008.371094 2809.308594 978.460938 C 2810.578125 946.617188 2788.609375 913.628906 2744.210938 913.394531 L 2700.828125 913.15625 L 2701.070312 870.371094 C 2701.308594 828.488281 2671.691406 807.289062 2641.039062 806.121094 C 2640.019531 806.101562 2639 806.039062 2637.980469 806.039062 Z M 2589.789062 993.5625 L 2573.140625 1035.945312 L 2572.699219 1078.046875 C 2572.269531 1118.621094 2599.941406 1139.929688 2629.53125 1142.433594 Z M 2669.128906 1051.664062 L 2645.019531 1142.03125 C 2673.21875 1138.179688 2698.988281 1117.183594 2699.390625 1079.453125 L 2699.679688 1052.09375 L 2669.128906 1051.664062 "/>
<path fill-rule="nonzero" fill="rgb(12.939453%, 26.660156%, 47.068787%)" fill-opacity="1" d="M 3872.171875 707.121094 L 3872.171875 785.929688 C 3872.070312 794 3878.589844 800.589844 3886.660156 800.589844 C 3894.730469 800.589844 3901.238281 794 3901.140625 785.929688 L 3901.140625 678.148438 L 3901.140625 704.640625 C 3901.328125 691.429688 3885.179688 684.878906 3876.109375 694.5 C 3873.53125 697.238281 3872.121094 700.878906 3872.171875 704.640625 L 3872.171875 678.148438 L 3872.171875 707.121094 "/>
<path fill-rule="nonzero" fill="rgb(12.939453%, 26.660156%, 47.068787%)" fill-opacity="1" d="M 3872.171875 588.460938 L 3872.171875 667.269531 C 3872.070312 675.339844 3878.589844 681.929688 3886.660156 681.929688 C 3894.730469 681.929688 3901.238281 675.339844 3901.140625 667.269531 L 3901.140625 559.488281 L 3901.140625 585.980469 C 3901.328125 572.769531 3885.179688 566.21875 3876.109375 575.839844 C 3873.53125 578.578125 3872.121094 582.210938 3872.171875 585.980469 L 3872.171875 559.488281 L 3872.171875 588.460938 "/>
<path fill-rule="nonzero" fill="rgb(12.939453%, 26.660156%, 47.068787%)" fill-opacity="1" d="M 3942.761719 409.21875 L 4422.519531 409.21875 C 4454.890625 409.21875 4480.949219 440.070312 4480.949219 478.398438 L 4480.949219 1506.027344 C 4480.949219 1544.351562 4454.890625 1575.203125 4422.519531 1575.203125 L 3942.761719 1575.203125 C 3910.390625 1575.203125 3884.328125 1544.351562 3884.328125 1506.027344 L 3884.328125 478.398438 C 3884.328125 440.070312 3910.390625 409.21875 3942.761719 409.21875 "/>
<path fill-rule="nonzero" fill="rgb(97.264099%, 97.264099%, 100%)" fill-opacity="1" d="M 3960.050781 430.679688 L 4405.230469 430.679688 C 4435.269531 430.679688 4459.449219 460.398438 4459.449219 497.320312 L 4459.449219 1487.105469 C 4459.449219 1524.019531 4435.269531 1553.738281 4405.230469 1553.738281 L 3960.050781 1553.738281 C 3930.011719 1553.738281 3905.828125 1524.019531 3905.828125 1487.105469 L 3905.828125 497.320312 C 3905.828125 460.398438 3930.011719 430.679688 3960.050781 430.679688 "/>
<path fill-rule="nonzero" fill="rgb(12.939453%, 26.660156%, 47.068787%)" fill-opacity="1" d="M 4202.230469 472.789062 C 4202.230469 483.609375 4193.460938 492.378906 4182.640625 492.378906 C 4177.449219 492.378906 4172.460938 490.308594 4168.789062 486.640625 C 4165.121094 482.96875 4163.058594 477.988281 4163.058594 472.789062 C 4163.058594 467.601562 4165.121094 462.621094 4168.789062 458.941406 C 4172.460938 455.269531 4177.449219 453.210938 4182.640625 453.210938 C 4193.460938 453.210938 4202.230469 461.96875 4202.230469 472.789062 "/>
<path fill-rule="nonzero" fill="rgb(50.193787%, 70.117188%, 100%)" fill-opacity="1" d="M 4407.058594 1283.886719 C 4407.058594 1292.429688 4407.058594 1304.039062 4407.058594 1320.324219 C 4407.058594 1331.828125 4407.058594 1341.640625 4407.058594 1355.207031 C 4407.058594 1386.058594 4407.050781 1420.320312 4407.050781 1449.238281 C 4407.050781 1455.960938 4407.050781 1483.09375 4407.050781 1468.429688 C 4407.050781 1440.546875 4407.050781 1520.628906 4407.050781 1520.628906 C 4407.050781 1601.3125 4683.421875 1609.421875 4692.5 1525.523438 C 4692.5 1525.523438 4692.46875 1520.101562 4692.410156 1493.863281 C 4692.398438 1486.203125 4692.378906 1457.40625 4692.359375 1449.277344 C 4692.300781 1420.628906 4692.230469 1395.65625 4692.179688 1358.355469 C 4692.171875 1345.195312 4692.148438 1331.890625 4692.140625 1318.710938 C 4692.121094 1300.71875 4692.109375 1287.914062 4692.109375 1271.105469 C 4685.929688 1185.003906 4404.960938 1185.773438 4407.058594 1262.882812 L 4407.058594 1283.886719 "/>
<path fill-rule="nonzero" fill="rgb(100%, 100%, 100%)" fill-opacity="1" d="M 4450.808594 1145.707031 L 4648.621094 1146.242188 C 4665.160156 1146.285156 4678.421875 1161.703125 4678.339844 1180.8125 L 4678.320312 1184.871094 C 4678.238281 1203.980469 4664.851562 1219.328125 4648.300781 1219.285156 L 4450.488281 1218.75 C 4433.941406 1218.703125 4420.691406 1203.285156 4420.769531 1184.175781 L 4420.78125 1180.117188 C 4420.871094 1161.007812 4434.261719 1145.660156 4450.808594 1145.707031 "/>
<path fill-rule="nonzero" fill="rgb(100%, 100%, 100%)" fill-opacity="1" d="M 4443.261719 1325.34375 C 4443.261719 1330.144531 4443.261719 1336.667969 4443.25 1345.820312 C 4443.25 1352.28125 4443.25 1357.792969 4443.25 1365.417969 C 4443.25 1382.753906 4443.25 1402.003906 4443.25 1418.253906 C 4443.25 1422.027344 4443.25 1437.273438 4443.25 1429.03125 C 4443.25 1413.367188 4443.238281 1458.363281 4443.238281 1458.363281 C 4443.238281 1503.699219 4643.738281 1508.253906 4650.339844 1461.113281 C 4650.339844 1461.113281 4650.308594 1458.066406 4650.269531 1443.324219 C 4650.261719 1439.019531 4650.25 1422.839844 4650.230469 1418.273438 C 4650.191406 1402.175781 4650.140625 1388.144531 4650.101562 1367.1875 C 4650.089844 1359.792969 4650.078125 1352.316406 4650.070312 1344.910156 C 4650.058594 1334.800781 4650.050781 1327.609375 4650.050781 1318.160156 C 4645.570312 1269.785156 4441.730469 1270.21875 4443.261719 1313.542969 L 4443.261719 1325.34375 "/>
<path fill-rule="nonzero" fill="rgb(66.601562%, 80.076599%, 100%)" fill-opacity="1" d="M 4243.128906 1490.503906 C 4228.980469 1498.367188 4200.519531 1514.175781 4200.519531 1514.175781 C 4150.910156 1541.890625 4189.128906 1606.519531 4237.351562 1579.621094 C 4237.351562 1579.621094 4251.289062 1571.757812 4284.320312 1553.402344 C 4292.769531 1548.710938 4289.359375 1546.222656 4287.03125 1542.417969 C 4280.878906 1532.335938 4265.039062 1502.183594 4259.019531 1492.035156 C 4256.878906 1488.425781 4255.25 1483.769531 4249.570312 1486.925781 L 4243.128906 1490.503906 "/>
<path fill-rule="nonzero" fill="rgb(17.259216%, 35.301208%, 62.693787%)" fill-opacity="1" d="M 4263.140625 1479.382812 C 4277.300781 1471.515625 4305.75 1455.699219 4305.75 1455.699219 C 4355.488281 1428.207031 4390.179688 1494.796875 4341.878906 1521.535156 C 4341.878906 1521.535156 4327.839844 1529.222656 4294.800781 1547.578125 C 4286.359375 1552.269531 4286.050781 1548.058594 4284.050781 1544.078125 C 4278.730469 1533.527344 4261.5 1504.152344 4256.058594 1493.683594 C 4254.121094 1489.953125 4251.03125 1486.113281 4256.710938 1482.957031 L 4263.140625 1479.382812 "/>
<path fill-rule="nonzero" fill="rgb(100%, 100%, 100%)" fill-opacity="1" d="M 4414.441406 1503.425781 C 4430.640625 1503.242188 4463.191406 1502.875 4463.191406 1502.875 C 4520.011719 1502.371094 4518.828125 1577.445312 4463.621094 1577.972656 C 4463.621094 1577.972656 4447.609375 1578.046875 4409.828125 1578.46875 C 4400.171875 1578.574219 4401.898438 1574.726562 4402.03125 1570.269531 C 4402.378906 1558.464844 4401.210938 1524.425781 4401.410156 1512.628906 C 4401.480469 1508.429688 4400.589844 1503.578125 4407.078125 1503.507812 L 4414.441406 1503.425781 "/>
<path fill-rule="nonzero" fill="rgb(100%, 44.309998%, 50.193787%)" fill-opacity="1" d="M 4391.550781 1503.679688 C 4375.359375 1503.859375 4342.808594 1504.21875 4342.808594 1504.21875 C 4285.988281 1504.980469 4288.839844 1580.011719 4344.050781 1579.304688 C 4344.050781 1579.304688 4360.050781 1579.023438 4397.839844 1578.601562 C 4407.5 1578.492188 4405.679688 1574.683594 4405.449219 1570.230469 C 4404.839844 1558.4375 4405.261719 1524.378906 4404.789062 1512.589844 C 4404.628906 1508.394531 4405.410156 1503.523438 4398.910156 1503.597656 L 4391.550781 1503.679688 "/>
<path fill-rule="nonzero" fill="rgb(83.59375%, 89.84375%, 100%)" fill-opacity="1" d="M 4344.421875 1046.589844 L 4020.859375 1046.589844 C 3999.808594 1046.589844 3982.871094 1025.042969 3982.871094 998.277344 L 3982.871094 802.300781 C 3982.871094 775.539062 3999.808594 753.988281 4020.859375 753.988281 L 4344.421875 753.988281 C 4365.46875 753.988281 4382.421875 775.539062 4382.421875 802.300781 L 4382.421875 998.277344 C 4382.421875 1025.042969 4365.46875 1046.589844 4344.421875 1046.589844 "/>
<path fill-rule="nonzero" fill="rgb(83.59375%, 89.84375%, 100%)" fill-opacity="1" d="M 4344.421875 1421.910156 L 4020.859375 1421.910156 C 3999.808594 1421.910156 3982.871094 1400.363281 3982.871094 1373.597656 L 3982.871094 1177.625 C 3982.871094 1150.859375 3999.808594 1129.3125 4020.859375 1129.3125 L 4344.421875 1129.3125 C 4365.46875 1129.3125 4382.421875 1150.859375 4382.421875 1177.625 L 4382.421875 1373.597656 C 4382.421875 1400.363281 4365.46875 1421.910156 4344.421875 1421.910156 "/>
<path fill-rule="nonzero" fill="rgb(100%, 100%, 100%)" fill-opacity="1" d="M 4106.320312 1340.535156 C 4141.109375 1381.433594 4203.480469 1385.519531 4245.628906 1349.660156 C 4287.78125 1313.800781 4293.75 1251.578125 4258.960938 1210.683594 C 4224.171875 1169.789062 4161.800781 1165.703125 4119.648438 1201.5625 C 4077.5 1237.417969 4071.53125 1299.640625 4106.320312 1340.535156 "/>
<path fill-rule="nonzero" fill="rgb(83.59375%, 89.84375%, 100%)" fill-opacity="1" d="M 4124.320312 1289.371094 L 4224 1232.113281 C 4232.339844 1227.320312 4242.621094 1229.726562 4247.058594 1237.507812 L 4248 1239.160156 C 4252.441406 1246.9375 4249.300781 1257.058594 4240.960938 1261.847656 L 4141.28125 1319.109375 C 4132.941406 1323.898438 4122.660156 1321.492188 4118.21875 1313.714844 L 4117.28125 1312.0625 C 4112.839844 1304.28125 4115.980469 1294.160156 4124.320312 1289.371094 "/>
<path fill-rule="nonzero" fill="rgb(50.193787%, 70.117188%, 100%)" fill-opacity="1" d="M 3845.898438 531.578125 L 3845.898438 598.308594 C 3845.898438 645.230469 3875.609375 683.011719 3912.511719 683.011719 C 3949.410156 683.011719 3979.121094 645.230469 3979.121094 598.308594 C 3979.121094 645.230469 4008.820312 683.011719 4045.71875 683.011719 C 4082.621094 683.011719 4112.328125 645.230469 4112.328125 598.308594 C 4112.328125 645.230469 4142.039062 683.011719 4178.941406 683.011719 C 4215.839844 683.011719 4245.550781 645.230469 4245.550781 598.308594 C 4245.550781 645.230469 4275.25 683.011719 4312.148438 683.011719 C 4349.050781 683.011719 4378.761719 645.230469 4378.761719 598.308594 C 4378.761719 645.230469 4408.46875 683.011719 4445.371094 683.011719 C 4482.269531 683.011719 4511.980469 645.230469 4511.980469 598.308594 L 4511.980469 531.578125 L 3845.898438 531.578125 "/>
<path fill-rule="nonzero" fill="rgb(12.939453%, 26.660156%, 47.068787%)" fill-opacity="1" d="M 3903.359375 427.378906 L 4460.910156 427.378906 L 4515.261719 533.128906 L 3842.621094 533.128906 L 3903.359375 427.378906 "/>
<path fill-rule="nonzero" fill="rgb(100%, 100%, 100%)" fill-opacity="1" d="M 4196.171875 855.101562 C 4215.191406 854.890625 4253.429688 854.449219 4253.429688 854.449219 C 4320.191406 853.859375 4318.800781 942.058594 4253.941406 942.671875 C 4253.941406 942.671875 4235.140625 942.761719 4190.75 943.257812 C 4179.398438 943.382812 4181.441406 938.859375 4181.589844 933.625 C 4182 919.757812 4180.621094 879.769531 4180.851562 865.910156 C 4180.941406 860.980469 4179.890625 855.28125 4187.519531 855.199219 L 4196.171875 855.101562 "/>
<path fill-rule="nonzero" fill="rgb(100%, 100%, 100%)" fill-opacity="1" d="M 4169.28125 855.398438 C 4150.261719 855.609375 4112.019531 856.03125 4112.019531 856.03125 C 4045.261719 856.929688 4048.621094 945.070312 4113.46875 944.238281 C 4113.46875 944.238281 4132.28125 943.90625 4176.660156 943.414062 C 4188.011719 943.285156 4185.878906 938.808594 4185.609375 933.582031 C 4184.890625 919.722656 4185.378906 879.714844 4184.828125 865.871094 C 4184.640625 860.941406 4185.558594 855.21875 4177.929688 855.300781 L 4169.28125 855.398438 "/>
<path fill="none" stroke-width="56.7001" stroke-linecap="round" stroke-linejoin="round" stroke="rgb(33.325195%, 59.959412%, 100%)" stroke-opacity="1" stroke-miterlimit="4" d="M 26818.085938 3730.507812 C 26817.617188 3687.890625 26799.609375 3646.875 26768.085938 3616.523438 C 26736.71875 3586.171875 26694.296875 3568.984375 26650.390625 3568.671875 C 26558.789062 3568.085938 26485.585938 3639.570312 26486.71875 3728.359375 C 26487.8125 3817.148438 26562.890625 3889.570312 26654.492188 3890.195312 C 26698.398438 3890.46875 26740.3125 3873.828125 26771.015625 3843.867188 C 26801.71875 3813.945312 26818.710938 3773.164062 26818.085938 3730.507812 Z M 26818.085938 3730.507812 " transform="matrix(0.1, 0, 0, -0.1, 0, 1875)"/>
<path fill="none" stroke-width="56.7001" stroke-linecap="round" stroke-linejoin="round" stroke="rgb(33.325195%, 59.959412%, 100%)" stroke-opacity="1" stroke-miterlimit="4" d="M 23563.789062 13541.09375 C 23563.203125 13498.398438 23545.195312 13457.382812 23513.789062 13427.109375 C 23482.304688 13396.71875 23440 13379.492188 23396.015625 13379.21875 C 23304.492188 13378.59375 23231.210938 13450.117188 23232.382812 13538.90625 C 23233.515625 13627.695312 23308.59375 13700.117188 23400.117188 13700.703125 C 23444.101562 13701.015625 23486.015625 13684.414062 23516.71875 13654.414062 C 23547.382812 13624.492188 23564.296875 13583.710938 23563.789062 13541.09375 Z M 23563.789062 13541.09375 " transform="matrix(0.1, 0, 0, -0.1, 0, 1875)"/>
<path fill="none" stroke-width="56.7001" stroke-linecap="round" stroke-linejoin="round" stroke="rgb(33.325195%, 59.959412%, 100%)" stroke-opacity="1" stroke-miterlimit="4" d="M 29288.59375 15322.695312 C 29288.007812 15280 29270.117188 15238.984375 29238.59375 15208.710938 C 29207.109375 15178.28125 29164.804688 15161.09375 29120.78125 15160.78125 C 29029.296875 15160.195312 28956.015625 15231.71875 28957.1875 15320.507812 C 28958.28125 15409.296875 29033.398438 15481.71875 29124.882812 15482.304688 C 29168.90625 15482.617188 29210.78125 15465.898438 29241.484375 15436.015625 C 29272.1875 15406.09375 29289.101562 15365.3125 29288.59375 15322.695312 Z M 29288.59375 15322.695312 " transform="matrix(0.1, 0, 0, -0.1, 0, 1875)"/>
</svg>
